<?xml version="1.0" encoding="UTF-8" standalone="no"?>
<svg
   xmlns:dc="http://purl.org/dc/elements/1.1/"
   xmlns:cc="http://creativecommons.org/ns#"
   xmlns:rdf="http://www.w3.org/1999/02/22-rdf-syntax-ns#"
   xmlns:svg="http://www.w3.org/2000/svg"
   xmlns="http://www.w3.org/2000/svg"
   xmlns:sodipodi="http://sodipodi.sourceforge.net/DTD/sodipodi-0.dtd"
   xmlns:inkscape="http://www.inkscape.org/namespaces/inkscape"
   width="180mm"
   height="80mm"
   viewBox="0 0 180 80"
   version="1.1"
   id="svg8"
   sodipodi:docname="cplogovectorsm.svg"
   inkscape:version="1.0.1 (3bc2e813f5, 2020-09-07)">
  <defs
     id="defs2" />
  <sodipodi:namedview
     id="base"
     pagecolor="#ffffff"
     bordercolor="#666666"
     borderopacity="1.0"
     inkscape:pageopacity="0.0"
     inkscape:pageshadow="2"
     inkscape:zoom="0.98994949"
     inkscape:cx="-37.404858"
     inkscape:cy="382.2358"
     inkscape:document-units="mm"
     inkscape:current-layer="layer1"
     inkscape:document-rotation="0"
     showgrid="false"
     inkscape:window-width="1689"
     inkscape:window-height="1047"
     inkscape:window-x="1975"
     inkscape:window-y="70"
     inkscape:window-maximized="0"
     inkscape:lockguides="true" />
  <metadata
     id="metadata5">
    <rdf:RDF>
      <cc:Work
         rdf:about="">
        <dc:format>image/svg+xml</dc:format>
        <dc:type
           rdf:resource="http://purl.org/dc/dcmitype/StillImage" />
        <dc:title></dc:title>
      </cc:Work>
    </rdf:RDF>
  </metadata>
  <g
     inkscape:label="Layer 1"
     inkscape:groupmode="layer"
     id="layer1">
    <path
       style="fill:#ececec;stroke-width:0.171743"
       d="m 135.69372,77.188954 c -0.18065,-0.08289 -0.43027,-0.289421 -0.55467,-0.459082 -0.35546,-0.484712 0.075,-0.652877 0.82164,-0.320973 1.22595,0.544975 2.56156,-0.409718 2.56326,-1.832257 6.6e-4,-0.59161 0.0424,-0.579877 -0.7419,-0.209025 -1.27858,0.604553 -2.80992,0.02179 -3.35435,-1.276596 -0.52757,-1.258176 -0.1976,-2.855683 0.74712,-3.616943 0.6703,-0.540152 1.85011,-0.64434 2.61923,-0.231337 0.56378,0.302741 0.61706,0.304228 0.75723,0.02077 0.0829,-0.167701 0.25613,-0.304922 0.3849,-0.304922 0.19578,0 0.23404,0.531186 0.23356,3.242907 -6.5e-4,3.62361 -0.10831,4.065371 -1.16838,4.796835 -0.54757,0.377806 -1.69318,0.472425 -2.30762,0.19058 z m 1.78496,-3.585595 c 0.52643,-0.28271 1.04589,-1.183103 1.04589,-1.812873 0,-0.647832 -0.51965,-1.530271 -1.07754,-1.829873 -0.74986,-0.402683 -1.48149,-0.23618 -2.08267,0.473892 -0.63385,0.748721 -0.66417,1.914988 -0.0686,2.640132 0.69527,0.846596 1.31258,0.996111 2.18296,0.528722 z M 30.519944,70.420242 v -4.202078 h 1.942486 c 2.187189,0 2.760112,0.180402 3.428748,1.079653 1.124534,1.512408 0.798213,3.672494 -0.706298,4.675363 -0.420481,0.280287 -0.943033,0.386684 -2.243306,0.456746 l -1.695144,0.09138 -0.04843,1.050517 c -0.0415,0.901031 -0.09322,1.050529 -0.363242,1.050529 -0.303021,0 -0.314817,-0.157663 -0.314817,-4.202085 z m 4.241812,0.910153 c 1.003524,-0.542381 1.370582,-2.114896 0.758746,-3.250563 -0.473627,-0.87913 -1.198522,-1.154894 -2.870981,-1.092152 l -1.403091,0.05265 -0.04569,2.177857 c -0.03392,1.615022 0.0075,2.219316 0.161463,2.338296 0.298452,0.231164 2.870069,0.0601 3.399606,-0.226078 z m 2.700185,0.460091 c 0,-2.710039 0.01388,-2.831836 0.322876,-2.831836 0.179375,0 0.322878,0.121824 0.322878,0.274061 0,0.347198 0.14821,0.344669 0.782428,-0.01349 0.280011,-0.158098 0.630247,-0.26088 0.778268,-0.228362 0.511483,0.112241 0.395311,0.497588 -0.264931,0.878768 -1.021901,0.589987 -1.294443,1.253679 -1.295159,3.154008 -4.86e-4,1.476583 -0.02525,1.598614 -0.323501,1.598614 -0.309002,0 -0.322876,-0.121824 -0.322876,-2.831834 z m 4.232714,2.527986 c -1.58922,-0.886431 -1.769019,-3.674782 -0.312633,-4.848374 0.686909,-0.55352 1.961539,-0.640618 2.699041,-0.184393 1.69063,1.045801 1.75957,3.8427 0.122562,4.97222 -0.643656,0.444109 -1.772477,0.471354 -2.508961,0.06063 z m 1.986289,-0.715113 c 0.526423,-0.28271 1.045888,-1.183103 1.045888,-1.812873 0,-0.647832 -0.519642,-1.530271 -1.077551,-1.829873 -0.74985,-0.402683 -1.481484,-0.23618 -2.082649,0.473892 -0.633855,0.748721 -0.664176,1.914988 -0.06864,2.640132 0.695274,0.846596 1.312591,0.996111 2.182952,0.528722 z m 2.660307,-2.104991 c 0,-3.459404 0.124291,-4.051689 0.997771,-4.755576 0.536415,-0.432256 1.433896,-0.550004 1.541954,-0.202315 0.04081,0.13127 -0.160855,0.341282 -0.467125,0.486474 -0.296378,0.14053 -0.720528,0.474785 -0.94251,0.742807 -0.351253,0.4241 -0.410948,0.685794 -0.460236,2.01754 -0.06309,1.705308 -0.10146,1.651678 1.267446,1.771163 0.375268,0.03286 0.565043,0.141347 0.565043,0.323395 0,0.1993 -0.242163,0.29897 -0.887928,0.365396 l -0.887934,0.09137 -0.04806,1.141876 c -0.04176,0.992194 -0.08937,1.141869 -0.363244,1.141869 -0.300322,0 -0.315162,-0.147241 -0.315162,-3.123954 z m 4.878476,2.820104 c -0.737281,-0.411233 -1.203326,-1.229877 -1.291523,-2.268661 -0.06078,-0.715856 0.0038,-1.033184 0.343046,-1.688525 1.214344,-2.344953 4.319462,-1.617444 4.587616,1.074861 l 0.07966,0.799824 -2.065614,0.05135 c -1.303453,0.03217 -2.087067,0.124425 -2.123765,0.249567 -0.09625,0.328099 0.758052,1.155373 1.315273,1.273676 0.305063,0.06481 0.749045,0.0029 1.07164,-0.148782 0.612426,-0.288421 0.954388,-0.235042 0.954388,0.148952 0,0.720634 -1.889822,1.054897 -2.870729,0.50777 z m 2.816049,-3.086996 c 0.138191,-0.407557 -0.701953,-1.332043 -1.332121,-1.465825 -0.308451,-0.0655 -0.704851,-0.01027 -0.966216,0.13475 -0.542163,0.300665 -1.116147,1.141082 -0.966502,1.415096 0.06731,0.123229 0.701093,0.200927 1.638975,0.200927 1.236409,0 1.547738,-0.05452 1.625864,-0.284959 z m 1.860744,3.071123 c 0.03998,-0.237253 0.261675,-0.344118 0.859413,-0.414324 1.000733,-0.117546 1.20913,-0.262231 1.20913,-0.839735 0,-0.376529 -0.153231,-0.532716 -0.879062,-0.895975 -0.483486,-0.241957 -0.955701,-0.602005 -1.049374,-0.800069 -0.290772,-0.614865 -0.19612,-1.395494 0.232756,-1.91916 0.367125,-0.448297 0.493022,-0.487304 1.412614,-0.437745 0.768396,0.04137 1.00957,0.119869 1.00957,0.328442 0,0.182 -0.189756,0.290601 -0.565046,0.323362 -0.958847,0.08374 -1.275432,0.214697 -1.459519,0.603967 -0.230474,0.487398 -0.0093,0.793769 0.902185,1.250097 1.259281,0.630388 1.541782,1.918338 0.603885,2.753222 -0.567965,0.50559 -2.36002,0.543296 -2.276536,0.04783 z m 3.874609,0 c 0.03999,-0.237253 0.261678,-0.344118 0.859411,-0.414324 1.00073,-0.117546 1.209129,-0.262231 1.209129,-0.839735 0,-0.376529 -0.153231,-0.532716 -0.879064,-0.895975 -0.483484,-0.241957 -0.955702,-0.602005 -1.049371,-0.800069 -0.290773,-0.614865 -0.19612,-1.395494 0.232723,-1.91916 0.367128,-0.448297 0.493018,-0.487304 1.412615,-0.437745 0.768398,0.04137 1.009569,0.119869 1.009569,0.328442 0,0.182 -0.189794,0.290601 -0.565049,0.323362 -0.958844,0.08374 -1.275429,0.214697 -1.459517,0.603967 -0.230475,0.487398 -0.0093,0.793769 0.902183,1.250097 1.259282,0.630388 1.541781,1.918338 0.603889,2.753222 -0.567966,0.50559 -2.360021,0.543296 -2.276535,0.04783 z m 3.844399,-2.512113 c 0,-2.710039 0.01389,-2.831836 0.322876,-2.831836 0.309004,0 0.322877,0.121824 0.322877,2.831836 0,2.710031 -0.01389,2.831836 -0.322877,2.831836 -0.309003,0 -0.322876,-0.121824 -0.322876,-2.831836 z m 2.941179,2.527986 c -1.589219,-0.886431 -1.769019,-3.674782 -0.312635,-4.848374 0.686908,-0.55352 1.961534,-0.640618 2.699042,-0.184393 1.690631,1.045801 1.75957,3.8427 0.122562,4.97222 -0.643658,0.444109 -1.772476,0.471354 -2.508962,0.06063 z m 1.986285,-0.715113 c 0.526426,-0.28271 1.045887,-1.183103 1.045887,-1.812873 0,-0.647832 -0.519639,-1.530271 -1.077545,-1.829873 -0.749853,-0.402683 -1.481489,-0.23618 -2.082656,0.473892 -0.633846,0.748721 -0.664167,1.914988 -0.06864,2.640132 0.695281,0.846596 1.312594,0.996111 2.182952,0.528722 z m 2.660304,-1.812873 c 0,-2.710039 0.01388,-2.831836 0.322876,-2.831836 0.179374,0 0.322877,0.121824 0.322877,0.274061 0,0.344947 0.165456,0.345191 0.748388,9.92e-4 1.048482,-0.618814 2.548275,-0.155264 3.247295,1.003625 0.319448,0.52961 0.363244,0.83192 0.363244,2.50695 0,1.715425 -0.02803,1.898665 -0.282538,1.843805 -0.237946,-0.05124 -0.296065,-0.334571 -0.368374,-1.794717 -0.09505,-1.919577 -0.278701,-2.40664 -1.067147,-2.830043 -0.644104,-0.345883 -0.922424,-0.344258 -1.525946,0.0089 -0.840394,0.491806 -1.113652,1.240056 -1.114332,3.051339 -4.91e-4,1.476594 -0.02526,1.598613 -0.323502,1.598613 -0.309003,0 -0.322875,-0.121825 -0.322875,-2.831831 z m 7.30011,2.527986 c -1.139082,-0.635351 -1.65202,-2.427859 -1.083051,-3.784768 0.8122,-1.936962 3.306765,-2.105005 4.397746,-0.296241 0.319036,0.528939 0.363242,0.832417 0.363242,2.493562 0,1.530569 -0.04467,1.89132 -0.234141,1.89132 -0.128761,0 -0.296341,-0.125815 -0.372356,-0.279494 -0.124026,-0.250885 -0.19875,-0.250885 -0.729324,0 -0.759581,0.359162 -1.671548,0.349687 -2.342116,-0.02456 z m 2.005871,-0.725627 c 0.947226,-0.508674 1.250546,-1.577754 0.771661,-2.719811 -0.534792,-1.275393 -2.008746,-1.49785 -2.905558,-0.438529 -0.63385,0.748721 -0.664175,1.914988 -0.06864,2.640132 0.700293,0.852704 1.31175,0.996569 2.202535,0.518208 z M 83.15,70.420242 c 0,-4.080283 0.0089,-4.202078 0.322877,-4.202078 0.313533,0 0.322875,0.121825 0.322875,4.202078 0,4.080275 -0.0089,4.20208 -0.322875,4.20208 -0.313539,0 -0.322877,-0.121824 -0.322877,-4.20208 z m 8.754994,3.815636 c -1.794993,-1.005499 -2.634665,-3.559993 -1.829574,-5.566044 0.679198,-1.692367 2.417471,-2.817833 3.947146,-2.555632 0.833909,0.142926 1.941478,0.831169 2.012892,1.250778 0.07168,0.421051 -0.310526,0.402768 -1.058038,-0.05063 -0.704594,-0.427363 -1.907416,-0.480707 -2.673304,-0.118586 -0.711765,0.336541 -1.515146,1.417265 -1.73245,2.33051 -0.541475,2.275655 1.33497,4.672745 3.365878,4.299778 0.30122,-0.05533 0.835327,-0.270259 1.186926,-0.477659 0.351594,-0.207365 0.707127,-0.329622 0.790071,-0.271606 0.36171,0.252993 0.08925,0.681229 -0.696758,1.095376 -1.094659,0.576744 -2.353694,0.600941 -3.312789,0.0637 z m 6.617204,0.08258 c -1.589221,-0.886428 -1.769018,-3.674781 -0.312637,-4.84837 0.686911,-0.553523 1.961539,-0.640619 2.699039,-0.184395 1.69064,1.045802 1.75958,3.842701 0.12256,4.972217 -0.64366,0.444108 -1.772474,0.471355 -2.508959,0.06063 z m 1.986282,-0.715118 c 0.52643,-0.282709 1.04589,-1.1831 1.04589,-1.812873 0,-0.647836 -0.51964,-1.530273 -1.07755,-1.829872 -0.749845,-0.402684 -1.481487,-0.236182 -2.082641,0.473892 -0.633857,0.74872 -0.664174,1.914986 -0.06864,2.640132 0.695274,0.846593 1.312587,0.996106 2.182951,0.528721 z m 3.98708,0.715115 c -0.99682,-0.555988 -1.2393,-1.189039 -1.30069,-3.395804 -0.0518,-1.86117 -0.0378,-1.964012 0.26741,-1.964012 0.29642,0 0.32647,0.14437 0.37753,1.815388 0.0525,1.718293 0.0807,1.845204 0.52774,2.372812 0.5931,0.700082 1.33368,0.875723 2.05626,0.487679 0.82178,-0.441305 1.00293,-0.910674 1.09881,-2.847051 0.0724,-1.460127 0.13044,-1.743418 0.36836,-1.794715 0.25435,-0.05484 0.28248,0.127316 0.28192,1.825152 -4.8e-4,1.559629 -0.0561,1.989119 -0.32142,2.481507 -0.66458,1.233519 -2.15826,1.687082 -3.35592,1.019049 z m 4.64659,-2.527988 c 0,-2.710036 0.0139,-2.831835 0.32287,-2.831835 0.17937,0 0.32287,0.121825 0.32287,0.274061 0,0.344947 0.16547,0.345192 0.7484,9.93e-4 1.04849,-0.618816 2.54827,-0.155266 3.24729,1.003624 0.31943,0.529609 0.36324,0.83192 0.36324,2.50695 0,1.715424 -0.028,1.898661 -0.28253,1.843803 -0.23794,-0.05124 -0.2961,-0.33457 -0.36837,-1.794716 -0.095,-1.91958 -0.2787,-2.406641 -1.06714,-2.830046 -0.64411,-0.345881 -0.92243,-0.344254 -1.52597,0.0089 -0.84039,0.491809 -1.11365,1.240057 -1.11432,3.05134 -4.9e-4,1.476595 -0.0252,1.598615 -0.32349,1.598615 -0.30902,0 -0.32288,-0.121824 -0.32288,-2.831833 z m 6.00355,2.512115 c 0.0399,-0.237253 0.26167,-0.344119 0.85941,-0.414325 1.00072,-0.117545 1.20913,-0.262267 1.20913,-0.839735 0,-0.37653 -0.15324,-0.532715 -0.87907,-0.895975 -0.48348,-0.241958 -0.95569,-0.602005 -1.04937,-0.800069 -0.29076,-0.614867 -0.19612,-1.395496 0.23272,-1.919159 0.36713,-0.448297 0.49303,-0.487307 1.41262,-0.437746 0.7684,0.04138 1.00958,0.119856 1.00958,0.328443 0,0.181999 -0.18976,0.290601 -0.56506,0.323361 -0.95884,0.08372 -1.27543,0.214697 -1.4595,0.603969 -0.23049,0.487397 -0.009,0.793762 0.90216,1.250094 1.25929,0.630389 1.54178,1.918339 0.6039,2.753218 -0.56797,0.505593 -2.36003,0.543301 -2.27654,0.04784 z m 5.17116,0.01559 c -0.73729,-0.411247 -1.20332,-1.229887 -1.29153,-2.268659 -0.0608,-0.715856 0.004,-1.033189 0.34304,-1.688524 1.21434,-2.344957 4.31948,-1.617447 4.58761,1.07485 l 0.0796,0.799835 -2.06561,0.05134 c -1.30345,0.03217 -2.08706,0.124463 -2.12376,0.249568 -0.0962,0.328101 0.75806,1.15538 1.31528,1.273678 0.30505,0.06481 0.74903,0.0029 1.07164,-0.148801 0.61242,-0.288418 0.95438,-0.235001 0.95438,0.14899 0,0.720628 -1.88983,1.054896 -2.87072,0.50777 z m 2.81604,-3.086993 c 0.13815,-0.40756 -0.70195,-1.332044 -1.33212,-1.465833 -0.30845,-0.0655 -0.70485,-0.01027 -0.96621,0.13475 -0.54218,0.300701 -1.11616,1.141089 -0.96651,1.415102 0.0672,0.123228 0.70109,0.200928 1.63898,0.200928 1.2364,0 1.54773,-0.05453 1.62586,-0.284961 z m 1.83054,-0.811115 c 0,-4.080281 0.008,-4.202075 0.32287,-4.202075 0.31354,0 0.32288,0.121788 0.32288,4.202075 0,4.080282 -0.008,4.202083 -0.32288,4.202083 -0.31353,0 -0.32287,-0.121823 -0.32287,-4.202083 z m 1.61442,1.370249 c 0,-2.710038 0.0143,-2.831838 0.32288,-2.831838 0.309,0 0.32286,0.121825 0.32286,2.831838 0,2.710033 -0.0139,2.831834 -0.32286,2.831834 -0.309,0 -0.32288,-0.121823 -0.32288,-2.831834 z m 1.61443,0 c 0,-2.710038 0.0143,-2.831838 0.32287,-2.831838 0.17938,0 0.32287,0.121825 0.32287,0.274065 0,0.344945 0.16546,0.345186 0.74841,9.93e-4 1.04847,-0.618818 2.54827,-0.155265 3.24728,1.003624 0.31944,0.529611 0.36325,0.831918 0.36325,2.506947 0,1.715428 -0.028,1.898668 -0.28255,1.843808 -0.23794,-0.05124 -0.29609,-0.33457 -0.36838,-1.794716 -0.0949,-1.919581 -0.27868,-2.40664 -1.06714,-2.830046 -0.6441,-0.345883 -0.92242,-0.34429 -1.52595,0.0089 -0.84039,0.491805 -1.11365,1.240054 -1.11432,3.051341 -4.9e-4,1.476594 -0.0253,1.598616 -0.3235,1.598616 -0.30901,0 -0.32289,-0.121825 -0.32289,-2.831839 z M 63.615528,66.766305 c 0,-0.426299 0.0717,-0.548088 0.322876,-0.548088 0.25116,0 0.322877,0.121823 0.322877,0.548088 0,0.426299 -0.0717,0.548097 -0.322877,0.548097 -0.251159,0 -0.322876,-0.121823 -0.322876,-0.548097 z m 62.962332,0 c 0,-0.426299 0.0717,-0.548088 0.32288,-0.548088 0.25116,0 0.32286,0.121823 0.32286,0.548088 0,0.426299 -0.0717,0.548097 -0.32286,0.548097 -0.25114,0 -0.32288,-0.121823 -0.32288,-0.548097 z M 22.447849,60.189091 c 0,-0.364761 0.107621,-0.365393 61.590083,-0.365393 61.482448,0 61.590088,5.46e-4 61.590088,0.365393 0,0.364764 -0.1077,0.3654 -61.590088,0.3654 -61.482455,0 -61.590083,-5.45e-4 -61.590083,-0.3654 z m 0,-2.923184 c 0,-0.364763 0.107621,-0.365398 61.590083,-0.365398 61.482448,0 61.590088,5.47e-4 61.590088,0.365398 0,0.364764 -0.1077,0.3654 -61.590088,0.3654 -61.482455,0 -61.590083,-5.5e-4 -61.590083,-0.3654 z m 88.308711,-3.08634 c 0,-0.404988 0.30167,-0.56764 1.05268,-0.56764 0.64881,0 0.47826,1.065613 1.45302,-9.078572 0.82821,-8.619053 0.8704,-9.637397 0.41087,-9.915713 -0.17174,-0.104025 -0.46741,-0.189109 -0.657,-0.189109 -0.26514,0 -0.3328,-0.09492 -0.29312,-0.411072 0.0668,-0.532537 0.94288,-0.661673 1.53088,-0.225666 0.38314,0.284096 0.45301,0.279461 1.18895,-0.07881 0.98212,-0.478128 2.68129,-0.516047 3.49691,-0.07804 0.92746,0.49805 1.38375,1.481722 1.47007,3.169056 0.12648,2.473064 -0.5686,8.800693 -1.12861,10.273883 -0.38899,1.023258 -1.30086,2.015701 -2.14005,2.329122 -0.52929,0.197676 -2.13782,0.184432 -3.23554,-0.02663 -0.29658,-0.05702 -0.33662,0.09663 -0.50746,1.947795 -0.102,1.105327 -0.15265,2.071348 -0.11247,2.146708 0.0401,0.07531 0.37749,0.138306 0.74962,0.139846 0.80632,0.0029 1.16369,0.21826 1.02809,0.618211 -0.0839,0.247494 -0.42293,0.292501 -2.20301,0.292501 -1.95654,0 -2.10381,-0.0242 -2.10381,-0.345846 z m 6.56182,-5.878755 c 1.18965,-0.651723 1.56086,-1.877715 2.07054,-6.838378 0.61301,-5.966459 0.15526,-7.307947 -2.44903,-7.177382 -0.8695,0.04358 -1.27614,0.154315 -1.6144,0.439607 -0.42369,0.357328 -0.45984,0.495185 -0.57407,2.18931 -0.067,0.99439 -0.32602,3.847878 -0.57553,6.341097 -0.4727,4.723768 -0.46999,4.790191 0.21311,5.213015 0.55512,0.343599 2.1646,0.251714 2.92938,-0.167263 z M 11.781642,49.209595 c -0.284314,-0.451868 -0.418348,-1.14007 -0.666336,-3.421529 -0.178634,-1.643635 -0.392021,-2.914577 -0.502649,-2.994188 -0.105743,-0.07603 -1.1096089,-0.13956 -2.2308469,-0.1411 -1.5484144,-0.002 -2.0835183,0.05839 -2.2253528,0.25185 -0.2018485,0.275238 -1.6286578,4.967234 -1.6286578,5.355762 0,0.146822 0.2084874,0.235973 0.5518411,0.235973 0.7608264,0 1.0625777,0.161215 1.0625777,0.567632 0,0.321529 -0.1469851,0.34585 -2.0892191,0.34585 -1.277117,0 -2.1296998,-0.07414 -2.1933637,-0.190695 -0.1783424,-0.326541 0.2620131,-0.722787 0.8032087,-0.722787 0.3328395,0 0.6324166,-0.146501 0.8405839,-0.411072 C 3.872267,47.616515 9.1009861,30.397665 9.0196426,29.919661 8.9904783,29.748043 8.7332503,29.541537 8.4425194,29.456286 8.074197,29.348281 7.9180763,29.195265 7.9180763,28.942313 c 0,-0.296273 0.1106332,-0.36017 0.6237547,-0.36017 0.7859913,0 1.3704257,0.615052 1.609952,1.694276 0.142996,0.644248 1.518577,12.700885 1.885462,16.525501 0.05999,0.62557 0.246016,1.441289 0.413341,1.81271 0.226597,0.502938 0.258823,0.737239 0.126287,0.917956 -0.263288,0.358998 -0.401405,0.302877 -0.795225,-0.323017 z M 10.66259,41.496018 c 0,-0.44701 -0.9783573,-8.800362 -1.0706396,-9.141252 -0.050334,-0.185935 -0.1467473,-0.268183 -0.214258,-0.182684 -0.1183806,0.149941 -2.9126028,9.215009 -2.9126028,9.44915 0,0.06338 0.9444363,0.115285 2.0987468,0.115285 1.6276446,0 2.0987436,-0.05388 2.0987436,-0.240437 z m 25.953261,7.868145 c -0.130605,-0.22608 -0.284029,-0.577783 -0.340936,-0.781529 -0.05692,-0.203768 0.11427,-2.615545 0.38034,-5.359521 0.266105,-2.743966 0.483815,-5.477965 0.483815,-6.075534 0,-1.93555 -0.617555,-2.90176 -1.854661,-2.90176 -1.511804,0 -2.559541,1.397477 -3.137899,4.185359 -0.251335,1.211644 -1.142232,8.918102 -1.142232,9.880878 0,0.09037 0.345085,0.18934 0.76685,0.219956 0.654405,0.04748 0.774415,0.115969 0.818438,0.466757 0.05124,0.408305 0.03738,0.411073 -2.058385,0.411073 -1.962593,0 -2.109971,-0.0242 -2.109971,-0.345847 0,-0.417472 0.302459,-0.567636 1.143298,-0.567636 0.347907,0 0.632564,-0.03476 0.632564,-0.07712 0,-0.04238 0.36324,-3.822545 0.807206,-8.400251 0.443966,-4.577705 0.807209,-8.659118 0.807209,-9.069817 0,-0.988178 -0.208091,-1.381837 -0.801472,-1.516137 -0.352184,-0.0797 -0.490062,-0.215009 -0.490062,-0.48088 0,-0.306787 0.105114,-0.369963 0.615326,-0.369963 0.708658,0 1.259296,0.477175 1.428907,1.238271 0.06096,0.273541 0.02906,1.522521 -0.07029,2.775503 -0.09961,1.252976 -0.147507,2.316136 -0.106482,2.362599 0.04104,0.04651 0.309662,-0.172929 0.596904,-0.487554 1.452192,-1.590553 3.42805,-1.504314 4.542773,0.198263 0.521483,0.796488 0.510574,2.65504 -0.04937,8.414123 -0.464229,4.774606 -0.478651,5.123722 -0.231302,5.597627 0.469914,0.900252 -0.129865,1.550045 -0.630625,0.683191 z m 33.887898,0.07932 c -0.14591,-0.182417 -0.306757,-0.572958 -0.357472,-0.867816 -0.05071,-0.29489 0.135036,-3.002549 0.412716,-6.017086 0.303746,-3.297213 0.462592,-5.804144 0.398684,-6.292101 -0.152585,-1.164786 -0.934044,-2.020705 -1.844994,-2.020705 -1.699506,0 -2.678795,1.493114 -3.316972,5.057354 -0.295169,1.648674 -1.041177,8.850055 -0.938113,9.05615 0.0377,0.07531 0.336678,0.138305 0.6644,0.139846 0.730786,0.0042 1.078811,0.230541 0.947356,0.618204 -0.0839,0.247493 -0.42292,0.292502 -2.202992,0.292502 -1.956551,0 -2.103811,-0.0242 -2.103811,-0.345848 0,-0.417072 0.302429,-0.567633 1.140225,-0.567633 0.522675,0 0.642367,-0.06974 0.70542,-0.411071 0.183291,-0.992385 1.06031,-10.95165 1.06031,-12.041097 0,-1.288709 -0.09866,-1.482747 -0.858295,-1.688356 -0.55669,-0.150664 -0.536483,-0.719331 0.02871,-0.810273 0.771983,-0.124197 1.164258,0.1361 1.500151,0.995413 l 0.324295,0.829621 0.604636,-0.741178 c 0.708357,-0.868314 1.517339,-1.297095 2.447252,-1.297095 1.329465,0 2.218644,0.825753 2.592478,2.407529 0.163575,0.691977 0.111593,1.708263 -0.341695,6.684809 -0.510005,5.599253 -0.521813,5.890755 -0.257145,6.347852 0.21795,0.376445 0.23625,0.535183 0.08538,0.740918 -0.251126,0.34242 -0.370524,0.330312 -0.690586,-0.06983 z m -47.975182,-0.07148 c -0.774464,-0.30634 -1.50847,-1.019906 -1.898428,-1.845504 -0.334952,-0.709172 -0.359995,-0.982373 -0.337997,-3.689079 0.02817,-3.470257 0.670099,-9.463095 1.214689,-11.340442 0.585049,-2.016867 1.652916,-3.309629 3.097481,-3.749816 0.360092,-0.109747 1.244881,-0.171255 1.966191,-0.136651 1.12941,0.05415 1.421743,0.140701 2.105771,0.623526 l 0.794301,0.560652 -0.03252,1.357689 c -0.04861,2.028398 -0.161597,2.545235 -0.556374,2.545235 -0.315268,0 -0.329249,-0.08526 -0.275222,-1.681014 l 0.05692,-1.681015 -0.645766,-0.417022 c -0.841545,-0.543459 -2.735912,-0.585441 -3.71455,-0.08231 -1.829494,0.940551 -2.385756,2.861111 -3.076232,10.620989 -0.46699,5.248272 -0.20061,6.954047 1.218569,7.803354 1.25453,0.750768 3.760732,0.456711 4.478717,-0.525481 0.108928,-0.148991 0.246453,-0.860573 0.305642,-1.581256 0.110064,-1.340304 0.389968,-1.92631 0.734072,-1.536901 0.116935,0.132334 0.136366,0.718666 0.05874,1.772907 -0.135206,1.837093 -0.387493,2.229213 -1.82727,2.840262 -0.943373,0.400376 -2.828822,0.473316 -3.666749,0.141841 z m 18.242932,-0.05124 c -1.552674,-0.825269 -1.958439,-2.153684 -1.690539,-5.534626 0.49577,-6.256774 0.872348,-8.008328 1.997547,-9.29096 0.758329,-0.864432 1.504181,-1.160397 2.928056,-1.161876 2.158785,-0.002 3.105604,1.241113 3.129512,4.109709 0.01691,2.059089 -0.57876,7.708769 -0.960734,9.108304 -0.378768,1.387767 -1.251367,2.496367 -2.224723,2.826387 -0.85584,0.290185 -2.584291,0.259221 -3.179119,-0.0569 z M 44.02069,48.38178 c 1.208846,-0.649164 1.531361,-1.663198 1.997814,-6.281321 0.539668,-5.343036 0.414107,-6.732092 -0.676553,-7.484599 -0.72287,-0.498752 -2.211211,-0.502297 -3.106866,-0.0069 -1.25213,0.691873 -1.673643,1.9463 -2.108244,6.274154 -0.394725,3.930778 -0.393502,5.742677 0.0044,6.517485 0.18061,0.351698 0.580174,0.783201 0.887931,0.958887 0.716693,0.40915 2.260243,0.420862 3.001531,0.02284 z m 4.500022,0.917966 c -1.196479,-0.494703 -1.265068,-0.673873 -1.049774,-2.742147 0.198819,-1.91027 0.302776,-2.198781 0.725942,-2.015023 0.222896,0.09685 0.246075,0.301982 0.152262,1.348833 -0.194977,2.175427 -0.204734,2.117015 0.413743,2.477355 0.430561,0.250851 0.847257,0.315022 1.750727,0.269634 1.151784,-0.05792 1.203168,-0.08078 1.797113,-0.80137 0.435179,-0.527969 0.663466,-1.016409 0.791977,-1.694536 0.491403,-2.593027 -0.03788,-3.724097 -2.32179,-4.961366 -0.710349,-0.384831 -1.543529,-0.99471 -1.851521,-1.35531 -0.506337,-0.592823 -0.565873,-0.77373 -0.621543,-1.888614 -0.112826,-2.259622 0.558754,-3.722556 1.993552,-4.342654 0.99559,-0.430287 2.958725,-0.294475 3.932215,0.272021 l 0.708194,0.412125 -0.109002,1.634538 c -0.121787,1.825955 -0.300836,2.534628 -0.640312,2.534628 -0.350469,0 -0.393512,-0.340068 -0.226461,-1.789341 0.08448,-0.732925 0.111728,-1.456019 0.06063,-1.606868 -0.15226,-0.448985 -1.147757,-0.805867 -2.247944,-0.805867 -1.799418,0 -2.69212,1.070499 -2.692599,3.228887 -3.25e-4,1.471651 0.368208,1.977022 2.172541,2.979177 2.223222,1.23481 2.968216,2.533796 2.778836,4.845228 -0.154677,1.887638 -0.865897,3.246913 -2.059549,3.93605 -0.751483,0.433848 -2.485721,0.466271 -3.457125,0.06469 z m 8.394977,0.04586 c -1.158196,-0.609004 -1.695137,-1.85069 -1.695137,-3.920028 0,-1.97876 0.427599,-6.972898 0.733053,-8.561656 0.467018,-2.429132 1.616915,-3.53169 3.683281,-3.53169 1.492512,0 2.276942,0.46106 2.722114,1.59995 0.284544,0.727938 0.31589,1.06371 0.224764,2.405666 -0.1438,2.117183 -0.339932,2.834066 -1.002274,3.663756 -0.73862,0.92521 -1.688061,1.285509 -3.724568,1.413433 -1.919213,0.120565 -1.82353,-0.0089 -1.826951,2.469204 -0.0042,2.802743 0.661167,3.802379 2.519199,3.786695 0.522279,-0.0042 1.240189,-0.126518 1.595363,-0.271297 0.884096,-0.360449 1.210813,-0.339723 1.210813,0.07684 0,0.809115 -3.318364,1.45878 -4.439651,0.869182 z m 2.93234,-8.264535 c 1.463041,-0.454916 1.907384,-1.481052 1.909822,-4.410426 9.65e-4,-1.198094 -0.04006,-1.367025 -0.443432,-1.823478 -0.389494,-0.440786 -0.589342,-0.510327 -1.614412,-0.561764 -1.499467,-0.0752 -2.073707,0.287173 -2.628643,1.658889 -0.461558,1.140927 -0.948108,5.006012 -0.678031,5.386213 0.203386,0.286348 2.1939,0.142603 3.454696,-0.249429 z m 30.486132,8.264535 c -1.158199,-0.608987 -1.695145,-1.850673 -1.695145,-3.92001 0,-1.978761 0.427604,-6.972899 0.73305,-8.561654 0.467034,-2.429135 1.616921,-3.531692 3.683283,-3.531692 1.492517,0 2.27695,0.461058 2.722125,1.59995 0.284544,0.727937 0.31589,1.06371 0.224765,2.405666 -0.143801,2.117181 -0.339932,2.834066 -1.002272,3.663755 -0.738628,0.92521 -1.688066,1.28551 -3.724566,1.413433 -1.919214,0.120565 -1.823534,-0.0089 -1.82696,2.469204 -0.0042,2.802743 0.661168,3.802379 2.519201,3.786694 0.522278,-0.0042 1.240183,-0.126517 1.595366,-0.271296 0.884099,-0.360448 1.210808,-0.339724 1.210808,0.07684 0,0.809117 -3.31836,1.458782 -4.439645,0.869183 z m 2.932342,-8.264535 c 1.463034,-0.454916 1.907379,-1.481052 1.90982,-4.410426 9.65e-4,-1.198094 -0.04009,-1.367025 -0.443434,-1.823478 -0.389497,-0.440786 -0.589338,-0.510327 -1.614421,-0.561764 -1.499453,-0.0752 -2.073708,0.287173 -2.628636,1.658889 -0.461561,1.140927 -0.948104,5.006012 -0.678032,5.386213 0.203388,0.286348 2.193898,0.142603 3.454703,-0.249429 z M 105.5097,49.2997 c -1.19649,-0.494715 -1.26507,-0.673887 -1.04978,-2.742167 0.19882,-1.910273 0.30278,-2.198785 0.72594,-2.015013 0.22291,0.09685 0.24608,0.30198 0.15226,1.348817 -0.19498,2.17544 -0.20472,2.117017 0.41376,2.477367 0.43055,0.250848 0.84726,0.315022 1.75071,0.269633 1.1518,-0.05792 1.20317,-0.08082 1.79712,-0.801375 0.43518,-0.527963 0.66347,-1.016414 0.79198,-1.694538 0.4914,-2.593029 -0.0379,-3.724088 -2.3218,-4.961368 -0.71034,-0.384823 -1.54351,-0.994708 -1.85151,-1.355298 -0.50634,-0.592822 -0.56589,-0.773744 -0.62155,-1.888627 -0.11282,-2.259624 0.55875,-3.722545 1.99356,-4.342653 0.99558,-0.430275 2.95873,-0.294474 3.9322,0.272057 l 0.7082,0.412117 -0.109,1.634541 c -0.12182,1.825953 -0.30083,2.534631 -0.64032,2.534631 -0.35045,0 -0.39351,-0.340068 -0.22646,-1.789338 0.0845,-0.732935 0.11173,-1.456018 0.0606,-1.606868 -0.15225,-0.44899 -1.14777,-0.805873 -2.24795,-0.805873 -1.79942,0 -2.69212,1.070506 -2.69261,3.228897 -3.3e-4,1.47165 0.36821,1.977008 2.17254,2.979173 2.22322,1.234814 2.96822,2.533791 2.77884,4.845225 -0.15468,1.887631 -0.8659,3.246902 -2.05955,3.936044 -0.75147,0.433859 -2.48573,0.466283 -3.45713,0.06469 z m 17.27427,0.04586 c -1.15818,-0.609011 -1.69513,-1.850693 -1.69513,-3.920027 0,-1.978772 0.4276,-6.972902 0.73305,-8.561665 0.46703,-2.429124 1.61692,-3.531694 3.68329,-3.531694 1.49251,0 2.27694,0.461057 2.72211,1.599948 0.28453,0.727949 0.31588,1.063724 0.22476,2.40567 -0.1438,2.117182 -0.33993,2.834076 -1.00227,3.663754 -0.73862,0.925221 -1.68806,1.285524 -3.72457,1.413433 -1.91921,0.120565 -1.82353,-0.0089 -1.82696,2.46922 -0.004,2.802728 0.66118,3.802375 2.5192,3.786679 0.52228,-0.0042 1.24019,-0.126479 1.59537,-0.271294 0.88409,-0.36044 1.21081,-0.339722 1.21081,0.07681 0,0.809132 -3.31835,1.458792 -4.43966,0.869194 z m 2.93235,-8.264553 c 1.46304,-0.45492 1.90738,-1.481065 1.90982,-4.410442 9.7e-4,-1.198085 -0.0401,-1.367018 -0.44343,-1.823466 -0.38949,-0.440784 -0.58935,-0.510325 -1.61441,-0.561776 -1.49946,-0.0752 -2.0737,0.287175 -2.62864,1.658895 -0.46157,1.14093 -0.94812,5.00601 -0.67804,5.386222 0.20336,0.286311 2.19391,0.142583 3.4547,-0.249433 z m 4.71036,8.141985 c -1.49052,-0.891089 -1.74436,-2.090198 -1.36152,-6.431649 0.5375,-6.095521 0.96975,-7.729445 2.33138,-8.812659 0.61585,-0.489931 0.85472,-0.56261 2.03227,-0.618476 1.09555,-0.05195 1.44901,0.0029 1.9747,0.306372 1.01495,0.585979 1.07221,0.735295 0.93878,2.448092 -0.13508,1.734322 -0.29561,2.333073 -0.62552,2.333073 -0.34064,0 -0.36854,-0.250364 -0.20817,-1.869298 0.13487,-1.361712 0.12151,-1.487493 -0.19692,-1.847835 -0.53152,-0.601509 -2.45239,-0.648361 -3.31604,-0.08089 -1.21203,0.796384 -1.63166,2.367227 -2.11141,7.903899 -0.35918,4.145187 -0.18452,5.218011 0.94876,5.826584 0.70967,0.381102 2.23364,0.385819 2.93518,0.0089 0.57979,-0.311356 0.62935,-0.45846 0.80757,-2.39694 0.10843,-1.179601 0.41882,-1.746729 0.75052,-1.371351 0.18541,0.209819 -0.0511,3.469351 -0.28243,3.893003 -0.061,0.111324 -0.48307,0.398722 -0.93836,0.638622 -1.07449,0.566183 -2.79445,0.599093 -3.67881,0.07038 z m 8.98581,0.111459 c -0.59373,-0.298624 -1.13231,-0.942098 -1.36151,-1.62666 -0.26843,-0.801713 -0.20964,-2.22563 0.31106,-7.532204 0.60223,-6.138122 0.60126,-5.747253 0.0143,-5.747253 -0.68116,0 -0.98186,-0.173861 -0.98186,-0.567642 0,-0.287418 0.12114,-0.34585 0.71698,-0.34585 0.39432,0 0.76202,-0.08251 0.81709,-0.183387 0.0551,-0.100847 0.15453,-0.759398 0.22101,-1.463401 0.12428,-1.316398 0.32925,-1.786351 0.67398,-1.545247 0.14037,0.09811 0.17221,0.547225 0.11076,1.560972 -0.10077,1.663069 -0.13015,1.631056 1.49983,1.631056 1.1355,0 1.45999,0.184566 1.12578,0.640332 -0.12867,0.17542 -0.61476,0.275928 -1.50722,0.311699 l -1.31737,0.05285 -0.51114,5.024219 c -0.28112,2.763321 -0.51726,5.583256 -0.52469,6.266515 -0.0212,1.925504 0.4384,2.637965 1.84304,2.858434 0.51339,0.08059 0.65634,0.185631 0.69736,0.512427 0.0468,0.372738 -0.0135,0.410405 -0.64578,0.403921 -0.38354,-0.0042 -0.91529,-0.116776 -1.18168,-0.250747 z m 20.33366,9.17e-4 c -0.62716,-0.309177 -1.28036,-1.185562 -1.53539,-2.060063 -0.36164,-1.240077 0.15007,-8.931191 0.74392,-11.180903 0.19581,-0.741802 0.46092,-1.201615 1.08026,-1.873606 0.45139,-0.489809 0.77448,-0.942915 0.71793,-1.006921 -0.14471,-0.163727 -2.94462,-0.861455 -6.08412,-1.516107 -2.48887,-0.518982 -4.77514,-1.150862 -4.9726,-1.374312 -0.19744,-0.223416 5.25108,-0.07703 6.91659,0.185877 0.98651,0.155703 3.36078,0.730836 5.27619,1.278039 5.97424,1.706793 10.59187,3.625743 13.24096,5.502608 2.354,1.667752 3.27311,2.862007 3.26726,4.245327 -0.0143,3.453129 -3.88038,5.733688 -12.10457,7.140868 -1.19872,0.205116 -2.61537,0.493857 -3.14814,0.641677 -1.19678,0.332077 -2.74393,0.340036 -3.39829,0.01731 z m 3.30226,-0.959494 c 0.68533,-0.250468 0.89486,-0.263059 1.20927,-0.07267 0.32755,0.198371 0.71665,0.12783 2.80316,-0.508175 4.31296,-1.314689 7.53957,-2.887494 8.8592,-4.318412 0.88683,-0.961593 0.99914,-1.497067 0.53942,-2.571722 -0.84243,-1.969377 -3.48894,-3.523485 -9.52113,-5.59106 -0.66594,-0.228257 -1.27321,-0.41812 -1.34951,-0.421911 -0.0763,-0.0042 -0.15712,0.856359 -0.17953,1.911452 -0.0504,2.3751 -0.2668,3.293016 -0.98935,4.198081 -0.73863,0.925222 -1.68806,1.285527 -3.72456,1.413435 -1.91921,0.120566 -1.82352,-0.0089 -1.82695,2.469221 -0.004,2.765211 0.65313,3.785576 2.44124,3.791624 0.50036,0.002 1.28278,-0.133247 1.73871,-0.299906 z m -0.3619,-7.294901 c 1.46305,-0.454917 1.90739,-1.481052 1.90983,-4.410429 0.002,-1.198091 -0.0401,-1.367024 -0.44345,-1.823476 -0.38948,-0.440786 -0.58933,-0.51032 -1.61441,-0.561766 -1.49946,-0.0752 -2.07371,0.287174 -2.62864,1.658896 -0.46154,1.140921 -0.9481,5.006006 -0.67804,5.38621 0.20338,0.286344 2.19391,0.142603 3.45471,-0.249435 z M 78.951374,48.99858 c -0.0014,-0.542807 1.76268,-19.292039 1.865198,-19.822845 0.07773,-0.402467 0.126763,-0.411074 2.341681,-0.411074 2.409772,0 3.083475,0.16983 3.839496,0.967889 1.053542,1.112127 1.314011,2.801725 0.934654,6.06283 -0.539252,4.635616 -2.227373,6.47616 -6.022282,6.566081 -0.738402,0.01732 -1.406635,0.110126 -1.484949,0.205735 -0.07833,0.09562 -0.264065,1.530472 -0.412753,3.188454 -0.148686,1.657999 -0.307585,3.158412 -0.353122,3.334264 -0.125736,0.485608 -0.706538,0.410653 -0.707923,-0.09137 z M 83.15,41.35901 c 1.845256,-0.337301 3.116908,-1.513931 3.610434,-3.340618 0.344394,-1.274697 0.653273,-4.645867 0.518712,-5.661316 -0.136517,-1.030187 -0.650522,-1.90067 -1.382115,-2.340635 -0.455642,-0.274027 -0.923429,-0.338304 -2.461994,-0.338304 -1.044703,0 -1.899459,0.06481 -1.899459,0.144103 0,0.0792 -0.217604,2.401799 -0.483605,5.161247 -0.665522,6.904639 -0.657408,6.265809 -0.08146,6.407643 0.734819,0.180953 1.038517,0.176466 2.179464,-0.03217 z m 12.507375,7.859948 c -0.203627,-0.372824 0.279564,-0.722792 0.997852,-0.722792 0.424475,0 0.740039,-0.09216 0.781763,-0.228365 0.05771,-0.188312 0.408299,-3.790123 1.155633,-11.872072 0.107925,-1.167056 -0.191217,-1.967379 -0.735374,-1.967379 -0.164659,0 -0.38719,-0.119734 -0.494503,-0.266071 -0.543285,-0.740816 0.891983,-0.926874 1.535167,-0.198992 0.21795,0.246663 0.396264,0.570649 0.396264,0.720017 0,0.517659 0.327997,0.496986 0.731843,-0.04617 0.5598,-0.752887 1.63644,-1.305018 2.54471,-1.305018 0.81993,0 1.9807,0.442538 2.10244,0.801536 0.042,0.12378 0.005,1.001201 -0.0823,1.949825 -0.16221,1.764244 -0.43273,2.460724 -0.79603,2.049583 -0.1323,-0.149733 -0.14172,-0.648569 -0.034,-1.788904 0.14042,-1.482563 0.12941,-1.597432 -0.17649,-1.839913 -0.17947,-0.142261 -0.64065,-0.258634 -1.02488,-0.258634 -2.27889,0 -3.147506,2.224037 -3.908067,10.006434 -0.439742,4.499651 -0.45658,4.243489 0.279217,4.246884 0.739678,0.0029 1.08886,0.229019 0.956882,0.618216 -0.08358,0.24656 -0.41542,0.292501 -2.112745,0.292501 -1.224561,0 -2.054366,-0.07468 -2.11771,-0.190711 z m 46.741785,-0.149859 c 0,-0.433267 0.30023,-0.57294 1.23134,-0.57294 h 0.7206 l -0.0959,-0.593778 c -0.0528,-0.326577 0.12004,-2.731349 0.38413,-5.34395 0.83124,-8.224808 0.83506,-8.053252 -0.18194,-8.164228 -0.39999,-0.04371 -0.52448,-0.143952 -0.52448,-0.422626 0,-0.266627 0.12532,-0.381609 0.46348,-0.425338 0.82632,-0.106912 1.23706,0.121249 1.49988,0.833119 0.27794,0.752827 0.29582,0.430516 -0.44773,8.079898 -0.52887,5.441059 -0.51313,5.758488 0.29511,5.951389 0.63699,0.152071 0.93378,0.359737 0.93378,0.653516 0,0.201723 -0.44139,0.264653 -2.13911,0.305096 -2.01818,0.04805 -2.13911,0.03115 -2.13911,-0.300184 z m 9.14702,0.03148 c -0.0456,-0.181695 -0.13026,-0.782552 -0.18812,-1.335224 -0.14433,-1.378355 -1.47634,-10.677281 -1.6893,-11.793382 -0.12946,-0.678456 -0.31845,-1.046419 -0.75709,-1.473838 -0.60237,-0.587034 -0.61635,-0.983301 -0.0346,-0.983301 0.56017,0 0.96873,0.370634 1.27593,1.157491 0.23019,0.589597 1.55129,8.82166 1.80572,11.251741 0.0255,0.24334 0.11895,0.467702 0.20777,0.498579 0.14904,0.05187 1.68675,-4.358295 3.19477,-9.162489 0.34696,-1.105323 0.69635,-2.087783 0.77643,-2.183241 0.37606,-0.448354 0.12175,-0.633067 -0.94418,-0.685909 -0.99456,-0.04926 -1.09429,-0.09037 -1.14193,-0.470498 l -0.0522,-0.416471 2.15096,0.05103 c 1.77912,0.04228 2.15096,0.09822 2.15096,0.323671 0,0.149942 -0.27431,0.418776 -0.60955,0.597427 -0.38182,0.203451 -0.69633,0.545303 -0.84175,0.914934 -0.26538,0.674468 -4.16629,12.546662 -4.39606,13.379056 -0.17662,0.639829 -0.77531,0.857753 -0.90765,0.330349 z m -6.14876,-17.391455 c -0.16637,-0.304643 0.0997,-1.690221 0.34502,-1.796754 0.42051,-0.182587 0.5909,0.24054 0.43456,1.079246 -0.14141,0.758622 -0.55117,1.135752 -0.77957,0.717508 z M 92.029301,29.943253 C 91.89613,29.911423 91.496538,29.825267 91.14137,29.751976 l -0.64577,-0.133247 0.64577,-0.140073 c 0.355168,-0.07703 3.261134,-0.231096 6.457676,-0.342319 3.196554,-0.111188 9.989214,-0.414446 15.094814,-0.673838 10.65972,-0.541579 15.56038,-0.514403 19.51608,0.108268 1.27738,0.201066 2.35436,0.4016 2.39327,0.445641 0.20498,0.23196 -3.391,0.332738 -13.67582,0.3833 -7.53962,0.0371 -13.0438,0.153573 -16.30563,0.34512 -4.27171,0.250849 -11.873436,0.370681 -12.592459,0.198506 z M 60.305972,28.293744 c -2.219201,-0.34934 -3.076409,-0.541296 -4.19749,-0.93994 C 51.25908,25.629394 47.428118,21.567383 44.793841,15.356752 43.420928,12.119946 42.114203,7.1781714 41.722434,3.7413136 L 41.608617,2.7428219 42.47708,3.6025545 c 1.565143,1.5494275 3.866538,2.5742878 6.827195,3.0403021 0.671674,0.1057362 3.094907,0.3191882 5.384973,0.4743745 6.30613,0.427341 8.589955,0.8966314 11.105747,2.2820611 2.375289,1.3080628 3.969072,3.0888268 5.231878,5.8457008 0.700144,1.528497 1.397552,3.878978 1.558613,5.252995 0.127961,1.091745 0.156957,1.07275 -1.891811,1.240255 -6.05095,0.494745 -14.269273,-3.313285 -21.646671,-10.030166 -2.345181,-2.1352154 -2.576976,-2.1176501 -1.267228,0.096 4.145311,7.006155 10.495463,10.681135 21.728384,12.574733 1.184057,0.1996 2.556087,0.558335 3.148114,0.823101 0.577154,0.258121 1.812187,0.716326 2.74451,1.018248 2.213057,0.716663 3.551721,1.270952 3.551721,1.470655 0,0.422494 -2.767995,0.03504 -6.215507,-0.869961 l -1.130093,-0.296689 -1.937303,0.564137 c -1.065516,0.310282 -2.627467,0.690642 -3.471,0.84526 -1.564365,0.28676 -5.018039,0.49785 -5.892627,0.360172 z m 18.00077,-5.110978 c 0,-0.05553 0.437439,-0.559311 0.972086,-1.119478 1.927486,-2.01948 3.730274,-5.715883 5.096567,-10.449919 0.664161,-2.3012081 0.438597,-2.6739206 -0.434148,-0.717367 -0.739694,1.658253 -2.408957,4.686524 -3.427844,6.218556 -1.632063,2.454032 -4.129134,4.965371 -4.605722,4.632036 -0.347042,-0.242729 -0.746312,-2.782747 -0.734808,-4.674604 0.02283,-3.722478 1.053043,-5.311909 5.329843,-8.221464 2.763624,-1.8801163 4.570559,-3.6377911 5.212004,-5.0698958 0.191274,-0.4270659 0.408379,-0.7764707 0.482435,-0.7764707 0.15787,0 0.68821,1.964394 1.159176,4.2934247 0.480354,2.375508 0.602213,6.3714128 0.249086,8.1676478 -0.810558,4.12301 -3.112024,6.691131 -6.749163,7.531139 -1.232904,0.284716 -2.549519,0.380988 -2.549519,0.186409 z"
       id="path58" />
  </g>
</svg>
