<?xml version="1.0" encoding="UTF-8" standalone="no"?>
<svg
   xmlns:dc="http://purl.org/dc/elements/1.1/"
   xmlns:cc="http://creativecommons.org/ns#"
   xmlns:rdf="http://www.w3.org/1999/02/22-rdf-syntax-ns#"
   xmlns:svg="http://www.w3.org/2000/svg"
   xmlns="http://www.w3.org/2000/svg"
   xmlns:sodipodi="http://sodipodi.sourceforge.net/DTD/sodipodi-0.dtd"
   xmlns:inkscape="http://www.inkscape.org/namespaces/inkscape"
   width="210mm"
   height="297mm"
   viewBox="0 0 210 297"
   version="1.1"
   id="svg8"
   inkscape:version="1.0.1 (3bc2e813f5, 2020-09-07)"
   sodipodi:docname="cplogovector.svg">
  <defs
     id="defs2" />
  <sodipodi:namedview
     id="base"
     pagecolor="#ffffff"
     bordercolor="#666666"
     borderopacity="1.0"
     inkscape:pageopacity="0.0"
     inkscape:pageshadow="2"
     inkscape:zoom="0.98994949"
     inkscape:cx="574.5439"
     inkscape:cy="461.95883"
     inkscape:document-units="mm"
     inkscape:current-layer="layer1"
     inkscape:document-rotation="0"
     showgrid="false"
     inkscape:window-width="1920"
     inkscape:window-height="1017"
     inkscape:window-x="1912"
     inkscape:window-y="-2"
     inkscape:window-maximized="1" />
  <metadata
     id="metadata5">
    <rdf:RDF>
      <cc:Work
         rdf:about="">
        <dc:format>image/svg+xml</dc:format>
        <dc:type
           rdf:resource="http://purl.org/dc/dcmitype/StillImage" />
        <dc:title></dc:title>
      </cc:Work>
    </rdf:RDF>
  </metadata>
  <g
     inkscape:label="Layer 1"
     inkscape:groupmode="layer"
     id="layer1">
    <path
       style="fill:#3e433b;stroke-width:0.172585"
       d="m 153.33513,132.50722 c -0.18156,-0.0833 -0.43238,-0.29088 -0.55739,-0.46134 -0.35721,-0.48709 0.0754,-0.65608 0.82566,-0.32254 1.23198,0.54765 2.57413,-0.41173 2.57585,-1.84125 6.5e-4,-0.59451 0.0426,-0.58272 -0.74556,-0.21004 -1.28484,0.60752 -2.8237,0.0219 -3.3708,-1.28286 -0.53017,-1.26435 -0.19857,-2.86969 0.75078,-3.63469 0.67359,-0.5428 1.85919,-0.6475 2.63208,-0.23245 0.56656,0.30425 0.62009,0.30572 0.76095,0.0209 0.0833,-0.16852 0.25739,-0.3064 0.3868,-0.3064 0.19675,0 0.23519,0.53379 0.23469,3.25882 -6.5e-4,3.64139 -0.10881,4.08532 -1.17411,4.82037 -0.55025,0.37966 -1.70149,0.47474 -2.31895,0.1915 z m 1.79371,-3.60319 c 0.52901,-0.28409 1.05102,-1.18891 1.05102,-1.82177 0,-0.65101 -0.52219,-1.53778 -1.08283,-1.83885 -0.75354,-0.40466 -1.48876,-0.23736 -2.09288,0.47622 -0.63696,0.75239 -0.66743,1.92438 -0.069,2.65308 0.69869,0.85075 1.31903,1.001 2.19366,0.53132 z M 47.645339,125.70529 v -4.22269 h 1.952019 c 2.197919,0 2.773655,0.18129 3.445568,1.08495 1.130052,1.51983 0.802132,3.69051 -0.70976,4.6983 -0.422545,0.28166 -0.947661,0.38858 -2.254317,0.45899 l -1.703457,0.0918 -0.04865,1.05567 c -0.04173,0.90545 -0.09368,1.05568 -0.365026,1.05568 -0.304504,0 -0.316373,-0.15842 -0.316373,-4.2227 z m 4.262626,0.91462 c 1.008448,-0.54504 1.377305,-2.12527 0.762469,-3.26651 -0.475952,-0.88344 -1.204407,-1.16056 -2.885067,-1.09751 l -1.409975,0.0529 -0.04595,2.18854 c -0.03407,1.62295 0.0079,2.23021 0.162234,2.34977 0.299915,0.23228 2.88415,0.0604 3.416285,-0.22718 z m 2.713434,0.46235 c 0,-2.72333 0.01395,-2.84573 0.324468,-2.84573 0.18026,0 0.324468,0.1224 0.324468,0.27539 0,0.3489 0.148931,0.34635 0.786264,-0.0135 0.281406,-0.15887 0.633347,-0.26214 0.782092,-0.22949 0.51399,0.11281 0.39725,0.50003 -0.266234,0.88308 -1.026915,0.59288 -1.300795,1.25983 -1.301515,3.16948 -4.87e-4,1.48383 -0.02538,1.60646 -0.325075,1.60646 -0.310512,0 -0.324468,-0.1224 -0.324468,-2.84573 z m 4.253479,2.54039 c -1.597016,-0.89078 -1.777699,-3.69281 -0.31417,-4.87216 0.690282,-0.55624 1.971163,-0.64376 2.712284,-0.18531 1.698927,1.05093 1.768204,3.86155 0.123158,4.99661 -0.646812,0.44629 -1.781172,0.47367 -2.521272,0.0609 z m 1.996033,-0.71862 c 0.529009,-0.28409 1.051016,-1.18891 1.051016,-1.82177 0,-0.65101 -0.522189,-1.53778 -1.082829,-1.83885 -0.753534,-0.40466 -1.488759,-0.23736 -2.092874,0.47622 -0.636962,0.75239 -0.667431,1.92438 -0.06898,2.65308 0.698688,0.85075 1.31903,1.001 2.193663,0.53132 z m 2.673356,-2.11532 c 0,-3.47638 0.124878,-4.07157 1.002671,-4.77891 0.539045,-0.43437 1.440928,-0.5527 1.549516,-0.2033 0.041,0.13191 -0.16164,0.34294 -0.469415,0.48886 -0.297853,0.14121 -0.724063,0.47711 -0.947134,0.74645 -0.352976,0.42618 -0.412967,0.68916 -0.462495,2.02744 -0.06342,1.71367 -0.101987,1.65978 1.273664,1.77985 0.377108,0.0329 0.567819,0.14206 0.567819,0.32496 0,0.20028 -0.243351,0.30042 -0.892286,0.36719 l -0.892287,0.0918 -0.0483,1.14748 c -0.04197,0.99706 -0.08981,1.14747 -0.365026,1.14747 -0.301797,0 -0.316726,-0.14798 -0.316726,-3.13928 z m 4.902415,2.83394 c -0.740898,-0.41325 -1.209229,-1.23591 -1.297862,-2.27979 -0.06108,-0.71937 0.0037,-1.03825 0.344741,-1.69681 1.220299,-2.35646 4.340654,-1.62538 4.610122,1.08013 l 0.08006,0.80375 -2.07575,0.0516 c -1.309847,0.0325 -2.097308,0.12507 -2.134184,0.2508 -0.09671,0.32972 0.761768,1.16104 1.321725,1.27992 0.306562,0.0651 0.752718,0.003 1.076896,-0.14953 0.615431,-0.28983 0.959072,-0.23619 0.959072,0.14971 0,0.72417 -1.899096,1.06007 -2.884815,0.51026 z m 2.829863,-3.10214 c 0.138877,-0.40956 -0.705396,-1.33858 -1.338654,-1.47302 -0.309971,-0.0658 -0.70831,-0.0103 -0.970956,0.13541 -0.544827,0.30217 -1.121625,1.14668 -0.971244,1.42204 0.06763,0.12384 0.70453,0.20192 1.647015,0.20192 1.242474,0 1.555334,-0.0548 1.633839,-0.28635 z m 1.869878,3.08619 c 0.04018,-0.23842 0.262949,-0.34582 0.863625,-0.41636 1.005641,-0.11811 1.215064,-0.26355 1.215064,-0.84385 0,-0.37838 -0.153986,-0.53533 -0.883375,-0.90037 -0.485855,-0.24316 -0.96039,-0.60496 -1.054521,-0.804 -0.292203,-0.61788 -0.197069,-1.40234 0.233881,-1.92857 0.368928,-0.4505 0.495443,-0.4897 1.419547,-0.4399 0.772167,0.0416 1.014521,0.12046 1.014521,0.33007 0,0.1829 -0.190711,0.29204 -0.567819,0.32495 -0.963547,0.0841 -1.281687,0.21575 -1.466681,0.60693 -0.231631,0.48979 -0.0094,0.79766 0.906612,1.25623 1.265462,0.63348 1.549346,1.92775 0.606851,2.76673 -0.570752,0.50807 -2.371598,0.54596 -2.287705,0.0481 z m 3.893615,0 c 0.04018,-0.23842 0.262949,-0.34582 0.863625,-0.41636 1.005641,-0.11811 1.215064,-0.26355 1.215064,-0.84385 0,-0.37838 -0.153986,-0.53533 -0.883375,-0.90037 -0.485855,-0.24316 -0.96039,-0.60496 -1.054521,-0.804 -0.292203,-0.61788 -0.197069,-1.40234 0.233881,-1.92857 0.368928,-0.4505 0.495443,-0.4897 1.419547,-0.4399 0.772167,0.0416 1.014521,0.12046 1.014521,0.33007 0,0.1829 -0.190711,0.29204 -0.567819,0.32495 -0.963547,0.0841 -1.281687,0.21575 -1.466681,0.60693 -0.231631,0.48979 -0.0094,0.79766 0.906612,1.25623 1.265462,0.63348 1.549345,1.92775 0.606851,2.76673 -0.570752,0.50807 -2.371598,0.54596 -2.287705,0.0481 z m 3.863262,-2.52444 c 0,-2.72333 0.01395,-2.84573 0.324468,-2.84573 0.310513,0 0.324468,0.1224 0.324468,2.84573 0,2.72333 -0.01395,2.84573 -0.324468,2.84573 -0.310512,0 -0.324468,-0.1224 -0.324468,-2.84573 z m 2.955608,2.54039 c -1.597017,-0.89078 -1.7777,-3.69281 -0.314171,-4.87216 0.690283,-0.55624 1.971163,-0.64376 2.712284,-0.18531 1.698927,1.05093 1.768204,3.86155 0.123158,4.99661 -0.646812,0.44629 -1.781171,0.47367 -2.521271,0.0609 z m 1.996032,-0.71862 c 0.529009,-0.28409 1.051017,-1.18891 1.051017,-1.82177 0,-0.65101 -0.522189,-1.53778 -1.082829,-1.83885 -0.753535,-0.40466 -1.48876,-0.23736 -2.092875,0.47622 -0.636961,0.75239 -0.667431,1.92438 -0.06897,2.65308 0.698688,0.85075 1.31903,1.001 2.193662,0.53132 z m 2.673356,-1.82177 c 0,-2.72333 0.01395,-2.84573 0.324468,-2.84573 0.18026,0 0.324468,0.1224 0.324468,0.27539 0,0.34664 0.166253,0.34688 0.752066,10e-4 1.053622,-0.62185 2.560776,-0.15604 3.263225,1.00855 0.321007,0.53221 0.365026,0.836 0.365026,2.51925 0,1.72384 -0.02822,1.90798 -0.283909,1.85285 -0.239096,-0.0515 -0.297528,-0.33622 -0.370181,-1.80352 -0.09552,-1.929 -0.280078,-2.41845 -1.072381,-2.84393 -0.647268,-0.34759 -0.92695,-0.34596 -1.533439,0.009 -0.844515,0.49422 -1.119114,1.24614 -1.1198,3.06631 -4.87e-4,1.48384 -0.02537,1.60646 -0.325075,1.60646 -0.310512,0 -0.324468,-0.1224 -0.324468,-2.84573 z m 7.335925,2.54039 c -1.144668,-0.63847 -1.660131,-2.43977 -1.088363,-3.80334 0.816187,-1.94646 3.322988,-2.11533 4.419321,-0.29771 0.3206,0.53153 0.365026,0.8365 0.365026,2.50579 0,1.53808 -0.04488,1.9006 -0.235289,1.9006 -0.129409,0 -0.297792,-0.1264 -0.374185,-0.28087 -0.124667,-0.2521 -0.199747,-0.2521 -0.732903,0 -0.763309,0.36092 -1.679751,0.3514 -2.353607,-0.0245 z m 2.015714,-0.72919 c 0.951874,-0.51117 1.256681,-1.58549 0.775448,-2.73315 -0.537421,-1.28165 -2.018606,-1.5052 -2.919817,-0.44068 -0.636962,0.75239 -0.667431,1.92438 -0.06898,2.65308 0.703727,0.85689 1.318187,1.00146 2.213345,0.52075 z m 2.653675,-3.18817 c 0,-4.1003 0.009,-4.22269 0.32447,-4.22269 0.31506,0 0.32447,0.12239 0.32447,4.22269 0,4.1003 -0.009,4.2227 -0.32447,4.2227 -0.31507,0 -0.32447,-0.1224 -0.32447,-4.2227 z m 8.79795,3.83436 c -1.8038,-1.01043 -2.64759,-3.57746 -1.83855,-5.59335 0.68253,-1.70067 2.42933,-2.83166 3.96651,-2.56817 0.838,0.14364 1.95101,0.83524 2.02277,1.25691 0.072,0.42312 -0.31206,0.40475 -1.06323,-0.0509 -0.70805,-0.42946 -1.91677,-0.48307 -2.68642,-0.11915 -0.71526,0.33821 -1.52258,1.42422 -1.74095,2.34195 -0.54413,2.28682 1.34152,4.69567 3.38239,4.32087 0.30269,-0.0556 0.83943,-0.27159 1.19275,-0.48 0.35332,-0.20841 0.7106,-0.33123 0.79395,-0.27294 0.36348,0.25422 0.0897,0.68457 -0.70018,1.10075 -1.10003,0.57957 -2.36524,0.60389 -3.32904,0.064 z m 6.64967,0.083 c -1.59702,-0.89078 -1.7777,-3.69281 -0.31417,-4.87216 0.69028,-0.55624 1.97116,-0.64376 2.71228,-0.18531 1.69893,1.05093 1.76821,3.86155 0.12316,4.99661 -0.64681,0.44629 -1.78117,0.47367 -2.52127,0.0609 z m 1.99603,-0.71862 c 0.52901,-0.28409 1.05102,-1.18891 1.05102,-1.82177 0,-0.65101 -0.52219,-1.53778 -1.08283,-1.83885 -0.75353,-0.40466 -1.48876,-0.23736 -2.09287,0.47622 -0.63696,0.75239 -0.66743,1.92438 -0.069,2.65308 0.69869,0.85075 1.31903,1.001 2.19366,0.53132 z m 4.00663,0.71862 c -1.0017,-0.55872 -1.24537,-1.19488 -1.30707,-3.41247 -0.052,-1.8703 -0.038,-1.97365 0.26871,-1.97365 0.29788,0 0.32806,0.14508 0.37938,1.8243 0.0528,1.72672 0.0811,1.85425 0.53032,2.38445 0.59602,0.70352 1.34022,0.88002 2.06636,0.49007 0.8258,-0.44347 1.00784,-0.91514 1.10419,-2.86102 0.0727,-1.46729 0.13109,-1.75197 0.37018,-1.80352 0.25558,-0.0551 0.28385,0.12792 0.28331,1.83411 -4.9e-4,1.56728 -0.0564,1.99888 -0.32299,2.49368 -0.66784,1.23957 -2.16885,1.69536 -3.37239,1.02405 z m 4.66939,-2.54039 c 0,-2.72333 0.0139,-2.84573 0.32446,-2.84573 0.18026,0 0.32447,0.1224 0.32447,0.27539 0,0.34664 0.16625,0.34688 0.75207,10e-4 1.05362,-0.62185 2.56077,-0.15604 3.26322,1.00855 0.32101,0.53221 0.36503,0.836 0.36503,2.51925 0,1.72384 -0.0282,1.90798 -0.28391,1.85285 -0.2391,-0.0515 -0.29753,-0.33622 -0.37018,-1.80352 -0.0955,-1.929 -0.28008,-2.41845 -1.07238,-2.84393 -0.64727,-0.34759 -0.92695,-0.34596 -1.53344,0.009 -0.84452,0.49422 -1.11912,1.24614 -1.1198,3.06631 -4.9e-4,1.48384 -0.0254,1.60646 -0.32508,1.60646 -0.31051,0 -0.32446,-0.1224 -0.32446,-2.84573 z m 6.033,2.52444 c 0.0402,-0.23842 0.26295,-0.34582 0.86363,-0.41636 1.00564,-0.11811 1.21506,-0.26355 1.21506,-0.84385 0,-0.37838 -0.15398,-0.53533 -0.88337,-0.90037 -0.48586,-0.24316 -0.96039,-0.60496 -1.05452,-0.804 -0.2922,-0.61788 -0.19707,-1.40234 0.23388,-1.92857 0.36893,-0.4505 0.49544,-0.4897 1.41955,-0.4399 0.77216,0.0416 1.01452,0.12046 1.01452,0.33007 0,0.1829 -0.19071,0.29204 -0.56782,0.32495 -0.96355,0.0841 -1.28169,0.21575 -1.46668,0.60693 -0.23163,0.48979 -0.009,0.79766 0.90661,1.25623 1.26546,0.63348 1.54934,1.92775 0.60685,2.76673 -0.57075,0.50807 -2.3716,0.54596 -2.28771,0.0481 z m 5.19654,0.016 c -0.7409,-0.41326 -1.20923,-1.23592 -1.29787,-2.27979 -0.0611,-0.71937 0.004,-1.03826 0.34474,-1.69681 1.2203,-2.35646 4.34066,-1.62538 4.61013,1.08012 l 0.08,0.80376 -2.07575,0.0516 c -1.30985,0.0325 -2.09731,0.12508 -2.13418,0.2508 -0.0967,0.32972 0.76177,1.16105 1.32172,1.27993 0.30656,0.0651 0.75272,0.003 1.0769,-0.14954 0.61543,-0.28982 0.95907,-0.23618 0.95907,0.14972 0,0.72416 -1.8991,1.06007 -2.88481,0.51026 z m 2.82986,-3.10214 c 0.13888,-0.40956 -0.7054,-1.33858 -1.33866,-1.47302 -0.30997,-0.0658 -0.70831,-0.0103 -0.97095,0.13541 -0.54483,0.30217 -1.12163,1.14668 -0.97125,1.42204 0.0676,0.12384 0.70453,0.20192 1.64702,0.20192 1.24247,0 1.55533,-0.0548 1.63384,-0.28635 z m 1.83952,-0.81522 c 0,-4.1003 0.009,-4.22269 0.32447,-4.22269 0.31506,0 0.32447,0.12239 0.32447,4.22269 0,4.1003 -0.009,4.2227 -0.32447,4.2227 -0.31506,0 -0.32447,-0.1224 -0.32447,-4.2227 z m 1.62234,1.37697 c 0,-2.72333 0.014,-2.84573 0.32447,-2.84573 0.31051,0 0.32447,0.1224 0.32447,2.84573 0,2.72333 -0.0139,2.84573 -0.32447,2.84573 -0.31051,0 -0.32447,-0.1224 -0.32447,-2.84573 z m 1.62234,0 c 0,-2.72333 0.014,-2.84573 0.32447,-2.84573 0.18026,0 0.32447,0.1224 0.32447,0.27539 0,0.34664 0.16625,0.34688 0.75207,10e-4 1.05362,-0.62185 2.56077,-0.15604 3.26322,1.00855 0.32101,0.53221 0.36503,0.836 0.36503,2.51925 0,1.72384 -0.0282,1.90798 -0.28391,1.85285 -0.2391,-0.0515 -0.29753,-0.33622 -0.37018,-1.80352 -0.0955,-1.929 -0.28008,-2.41845 -1.07239,-2.84393 -0.64726,-0.34759 -0.92695,-0.34596 -1.53343,0.009 -0.84452,0.49422 -1.11912,1.24614 -1.1198,3.06631 -4.9e-4,1.48384 -0.0254,1.60646 -0.32508,1.60646 -0.31051,0 -0.32447,-0.1224 -0.32447,-2.84573 z M 80.9033,122.03343 c 0,-0.42839 0.0721,-0.55078 0.324468,-0.55078 0.252365,0 0.324468,0.12239 0.324468,0.55078 0,0.42839 -0.0721,0.55079 -0.324468,0.55079 -0.252364,0 -0.324468,-0.1224 -0.324468,-0.55079 z m 63.27124,0 c 0,-0.42839 0.0721,-0.55078 0.32447,-0.55078 0.25237,0 0.32447,0.12239 0.32447,0.55078 0,0.42839 -0.0721,0.55079 -0.32447,0.55079 -0.25236,0 -0.32447,-0.1224 -0.32447,-0.55079 z M 39.533641,115.42395 c 0,-0.36655 0.108157,-0.36719 61.892259,-0.36719 61.78409,0 61.89225,5.5e-4 61.89225,0.36719 0,0.36655 -0.10816,0.36719 -61.89225,0.36719 -61.784102,0 -61.892259,-5.5e-4 -61.892259,-0.36719 z m 0,-2.93753 c 0,-0.36655 0.108157,-0.36719 61.892259,-0.36719 61.78409,0 61.89225,5.5e-4 61.89225,0.36719 0,0.36655 -0.10816,0.36719 -61.89225,0.36719 -61.784102,0 -61.892259,-5.5e-4 -61.892259,-0.36719 z m 88.741979,-3.10148 c 0,-0.40698 0.30312,-0.57043 1.05784,-0.57043 0.652,0 0.48061,1.07084 1.46015,-9.12311 0.83227,-8.66134 0.87467,-9.68468 0.41288,-9.96436 -0.17259,-0.10453 -0.46969,-0.19005 -0.66022,-0.19005 -0.26645,0 -0.33445,-0.0954 -0.29457,-0.41309 0.0672,-0.53515 0.9475,-0.66492 1.53839,-0.22677 0.38502,0.28549 0.45524,0.28083 1.19479,-0.0792 0.98693,-0.48047 2.69444,-0.51858 3.51407,-0.0784 0.932,0.50049 1.39054,1.48899 1.47728,3.1846 0.12713,2.4852 -0.57139,8.84387 -1.13415,10.32429 -0.39089,1.02828 -1.30724,2.02559 -2.15055,2.34055 -0.53188,0.19865 -2.14832,0.18536 -3.25142,-0.0267 -0.29803,-0.0573 -0.33825,0.0971 -0.50995,1.95735 -0.10252,1.11075 -0.15339,2.08151 -0.11303,2.15724 0.0404,0.0757 0.37934,0.13897 0.7533,0.14051 0.81028,0.003 1.16941,0.21931 1.03312,0.62125 -0.0843,0.24869 -0.425,0.29392 -2.2138,0.29392 -1.96615,0 -2.11413,-0.0243 -2.11413,-0.34755 z m 6.59401,-5.9076 c 1.19549,-0.65492 1.56852,-1.88693 2.08069,-6.87193 0.61602,-5.99573 0.15604,-7.3438 -2.46103,-7.21259 -0.87378,0.0438 -1.2824,0.15508 -1.62233,0.44176 -0.42577,0.35908 -0.46209,0.49761 -0.57688,2.20005 -0.0674,0.99927 -0.32763,3.86676 -0.57835,6.37221 -0.47503,4.74694 -0.47231,4.81369 0.21415,5.23859 0.55784,0.34529 2.17522,0.25294 2.94375,-0.16809 z m -106.054524,0.91324 c -0.285717,-0.45408 -0.420402,-1.14566 -0.669605,-3.43831 -0.179535,-1.6517 -0.393944,-2.92888 -0.505119,-3.00888 -0.106244,-0.0764 -1.115049,-0.14025 -2.241789,-0.1418 -1.556013,-0.002 -2.09374,0.0587 -2.236271,0.25307 -0.202834,0.27658 -1.63665,4.99161 -1.63665,5.38204 0,0.14754 0.209531,0.23714 0.55455,0.23714 0.764559,0 1.06779,0.16199 1.06779,0.57042 0,0.3231 -0.147709,0.34755 -2.099467,0.34755 -1.283383,0 -2.140149,-0.0745 -2.204125,-0.19163 -0.179204,-0.32814 0.2633,-0.72634 0.807147,-0.72634 0.334459,0 0.635519,-0.14723 0.84471,-0.41309 0.370649,-0.47106 5.625019,-17.77439 5.543276,-18.25474 -0.02935,-0.17246 -0.28781,-0.37998 -0.579955,-0.46565 -0.370128,-0.10854 -0.527013,-0.26229 -0.527013,-0.51649 0,-0.29774 0.111187,-0.36194 0.626813,-0.36194 0.789848,0 1.377151,0.61807 1.617852,1.70259 0.143688,0.64741 1.526028,12.7632 1.894713,16.60658 0.0603,0.62864 0.24722,1.44836 0.415368,1.8216 0.227693,0.50541 0.260082,0.74086 0.1269,0.92246 -0.264569,0.36076 -0.403375,0.30438 -0.799125,-0.32458 z m -1.124543,-7.75142 c 0,-0.4492 -0.983159,-8.84354 -1.075892,-9.1861 -0.05059,-0.18688 -0.147473,-0.2695 -0.215301,-0.1836 -0.118967,0.15066 -2.92689,9.26022 -2.92689,9.49551 0,0.0637 0.949068,0.11583 2.109041,0.11583 1.635632,0 2.109042,-0.0542 2.109042,-0.24164 z m 26.080591,7.90675 c -0.131244,-0.2272 -0.285422,-0.58062 -0.342615,-0.78537 -0.05719,-0.20476 0.114796,-2.62837 0.382202,-5.38581 0.267405,-2.75743 0.48619,-5.50484 0.48619,-6.10534 0,-1.94505 -0.620583,-2.916 -1.863761,-2.916 -1.519222,0 -2.572095,1.40433 -3.153294,4.20589 -0.252597,1.21759 -1.147835,8.96186 -1.147835,9.92936 0,0.0908 0.346775,0.19026 0.770611,0.22103 0.657614,0.0477 0.778214,0.11653 0.822454,0.46905 0.05149,0.41031 0.03758,0.41309 -2.068483,0.41309 -1.972223,0 -2.120325,-0.0243 -2.120325,-0.34755 0,-0.41952 0.30394,-0.57042 1.148907,-0.57042 0.349615,0 0.635666,-0.0349 0.635666,-0.0775 0,-0.0426 0.365027,-3.8413 0.81117,-8.44147 0.446143,-4.60016 0.81117,-8.7016 0.81117,-9.11431 0,-0.99303 -0.20912,-1.38862 -0.805407,-1.52358 -0.35391,-0.0801 -0.492465,-0.21606 -0.492465,-0.48324 0,-0.30828 0.105611,-0.37178 0.618345,-0.37178 0.712134,0 1.265474,0.47952 1.435917,1.24435 0.06126,0.27489 0.02948,1.52999 -0.07061,2.78912 -0.100097,1.25912 -0.14824,2.3275 -0.106987,2.37419 0.04125,0.0467 0.311178,-0.1738 0.599834,-0.48995 1.459314,-1.59835 3.444865,-1.51169 4.565056,0.19923 0.524043,0.8004 0.513086,2.66807 -0.04961,8.45541 -0.466507,4.79803 -0.481001,5.14886 -0.232413,5.62509 0.472222,0.90467 -0.130511,1.55765 -0.633717,0.68654 z m 34.05416,0.0797 c -0.146613,-0.18333 -0.308263,-0.57577 -0.359222,-0.87207 -0.05096,-0.29631 0.135673,-3.01728 0.414738,-6.04661 0.305235,-3.31339 0.464859,-5.83262 0.400639,-6.32297 -0.153297,-1.1705 -0.938626,-2.03062 -1.854047,-2.03062 -1.70784,0 -2.691934,1.50044 -3.333245,5.08217 -0.296641,1.65676 -1.046282,8.89347 -0.942714,9.10058 0.03787,0.0757 0.33832,0.13896 0.667661,0.14051 0.734372,0.004 1.084103,0.23167 0.952002,0.62124 -0.08433,0.24869 -0.424993,0.29392 -2.213799,0.29392 -1.966147,0 -2.114132,-0.0243 -2.114132,-0.34755 0,-0.41912 0.303919,-0.57042 1.145816,-0.57042 0.525239,0 0.645524,-0.0701 0.708884,-0.41309 0.18422,-0.99725 1.065511,-11.00538 1.065511,-12.10017 0,-1.29503 -0.09913,-1.49002 -0.862507,-1.69664 -0.55942,-0.15141 -0.539112,-0.72286 0.02894,-0.81425 0.77577,-0.12481 1.169968,0.13676 1.50751,1.0003 l 0.325873,0.83369 0.607602,-0.74481 c 0.711834,-0.87258 1.524785,-1.30346 2.459262,-1.30346 1.33598,0 2.229521,0.8298 2.605193,2.41934 0.164345,0.69537 0.112143,1.71664 -0.343366,6.7176 -0.512507,5.62673 -0.524374,5.91966 -0.258424,6.379 0.219029,0.37829 0.237411,0.53781 0.0858,0.74455 -0.252352,0.3441 -0.372343,0.33196 -0.693972,-0.0702 z m -48.210556,-0.0718 c -0.778265,-0.30786 -1.515872,-1.02491 -1.907746,-1.85456 -0.336608,-0.71265 -0.361761,-0.98719 -0.339656,-3.70718 0.02834,-3.48728 0.673387,-9.50952 1.220646,-11.39608 0.587923,-2.02676 1.661026,-3.32586 3.112679,-3.76821 0.36186,-0.11027 1.250987,-0.17206 1.975838,-0.13731 1.134952,0.0544 1.42872,0.1414 2.116105,0.62659 l 0.798195,0.5634 -0.03272,1.36435 c -0.04888,2.03835 -0.162413,2.55772 -0.559104,2.55772 -0.31683,0 -0.330866,-0.0857 -0.276558,-1.68926 l 0.05721,-1.68925 -0.648936,-0.41907 c -0.845671,-0.54613 -2.749335,-0.58831 -3.732773,-0.0827 -1.838471,0.94517 -2.397464,2.87515 -3.091326,10.6731 -0.469283,5.27402 -0.201602,6.98817 1.22455,7.84164 1.260683,0.75445 3.779183,0.45895 4.50069,-0.52806 0.109456,-0.14974 0.247674,-0.86479 0.307152,-1.58901 0.110615,-1.34688 0.391881,-1.93576 0.737673,-1.54444 0.117503,0.13297 0.137033,0.72219 0.05905,1.7816 -0.135887,1.84611 -0.389393,2.24015 -1.836235,2.8542 -0.948003,0.40234 -2.842704,0.47564 -3.684738,0.14255 z m 18.332437,-0.0515 c -1.560293,-0.82932 -1.968047,-2.16425 -1.698836,-5.56178 0.498201,-6.28747 0.87663,-8.04762 2.007347,-9.33654 0.762049,-0.86868 1.511561,-1.16609 2.942424,-1.16758 2.169372,-0.002 3.120837,1.2472 3.144865,4.12987 0.01725,2.06919 -0.581599,7.74659 -0.965448,9.15299 -0.380627,1.39458 -1.257508,2.50862 -2.235639,2.84026 -0.860036,0.2916 -2.596973,0.26049 -3.194713,-0.0572 z m 3.265132,-0.94359 c 1.214774,-0.65235 1.538876,-1.67136 2.007612,-6.31214 0.542315,-5.36925 0.416139,-6.76512 -0.679871,-7.52132 -0.726419,-0.5012 -2.222058,-0.50476 -3.122105,-0.007 -1.258277,0.69527 -1.681858,1.95585 -2.118592,6.30494 -0.39666,3.95006 -0.395436,5.77085 0.0044,6.54946 0.181492,0.35342 0.583022,0.78704 0.892286,0.96359 0.720212,0.41116 2.271338,0.42293 3.016262,0.0229 z m 4.522098,0.92247 c -1.202348,-0.49713 -1.271276,-0.67718 -1.054926,-2.7556 0.19982,-1.91964 0.304272,-2.20957 0.729503,-2.02491 0.224014,0.0973 0.247288,0.30347 0.153,1.35545 -0.195943,2.1861 -0.205747,2.1274 0.415774,2.48951 0.43267,0.25209 0.851414,0.31658 1.759319,0.27095 1.157434,-0.0582 1.209068,-0.0812 1.805927,-0.8053 0.437318,-0.53056 0.666724,-1.0214 0.795864,-1.70285 0.493813,-2.60575 -0.03809,-3.74237 -2.333185,-4.98571 -0.71383,-0.38672 -1.5511,-0.99959 -1.8606,-1.36196 -0.508821,-0.59573 -0.568654,-0.77753 -0.624594,-1.89788 -0.113377,-2.27071 0.561493,-3.74082 2.003333,-4.36396 1.000472,-0.4324 2.973242,-0.29593 3.951507,0.27335 l 0.711668,0.41415 -0.10957,1.64256 c -0.1224,1.83491 -0.302311,2.54706 -0.643458,2.54706 -0.352186,0 -0.395441,-0.34174 -0.227587,-1.79812 0.08489,-0.73652 0.112284,-1.46316 0.06088,-1.61475 -0.152991,-0.45119 -1.153389,-0.80982 -2.258974,-0.80982 -1.808247,0 -2.705328,1.07575 -2.705811,3.24473 -3.25e-4,1.47887 0.370015,1.98672 2.1832,2.99379 2.23413,1.24087 2.982778,2.54623 2.792471,4.869 -0.155412,1.8969 -0.870148,3.26284 -2.069656,3.95536 -0.755165,0.43598 -2.497916,0.46856 -3.474086,0.065 z m 8.436166,0.0461 c -1.163879,-0.61199 -1.703456,-1.85977 -1.703456,-3.93926 0,-1.98847 0.429697,-7.00711 0.73665,-8.60366 0.469312,-2.44105 1.624847,-3.54902 3.70135,-3.54902 1.499839,0 2.288117,0.46332 2.735472,1.6078 0.285936,0.73151 0.31746,1.06893 0.225864,2.41747 -0.14451,2.12757 -0.341588,2.84797 -1.007192,3.68173 -0.742246,0.92975 -1.696347,1.29182 -3.74284,1.42037 -1.928632,0.12114 -1.832478,-0.009 -1.83592,2.48132 -0.0039,2.81649 0.664413,3.82103 2.53156,3.80527 0.524842,-0.004 1.246277,-0.12712 1.603191,-0.27263 0.888439,-0.36222 1.216755,-0.3414 1.216755,0.0772 0,0.81309 -3.334643,1.46594 -4.461434,0.87345 z m 2.946727,-8.30508 c 1.470218,-0.45715 1.916739,-1.48832 1.919189,-4.43207 9.73e-4,-1.20397 -0.04028,-1.37373 -0.445604,-1.83242 -0.391408,-0.44295 -0.592235,-0.51283 -1.622339,-0.56452 -1.506818,-0.0756 -2.083879,0.28856 -2.641537,1.66703 -0.463824,1.14652 -0.952756,5.03057 -0.681355,5.41264 0.204377,0.28773 2.204662,0.1433 3.471646,-0.25066 z m 30.635702,8.30508 c -1.16388,-0.61199 -1.70346,-1.85977 -1.70346,-3.93926 0,-1.98847 0.4297,-7.00711 0.73665,-8.60366 0.46932,-2.44105 1.62485,-3.54902 3.70135,-3.54902 1.49984,0 2.28812,0.46332 2.73548,1.6078 0.28593,0.73151 0.31746,1.06893 0.22586,2.41747 -0.14451,2.12757 -0.34159,2.84797 -1.00719,3.68173 -0.74225,0.92975 -1.69635,1.29182 -3.74284,1.42037 -1.92863,0.12114 -1.83248,-0.009 -1.83592,2.48132 -0.004,2.81649 0.66441,3.82103 2.53156,3.80527 0.52484,-0.004 1.24627,-0.12712 1.60319,-0.27263 0.88844,-0.36222 1.21675,-0.3414 1.21675,0.0772 0,0.81309 -3.33464,1.46594 -4.46143,0.87345 z m 2.94673,-8.30508 c 1.47021,-0.45715 1.91674,-1.48832 1.91919,-4.43207 9.7e-4,-1.20397 -0.0403,-1.37373 -0.44561,-1.83242 -0.39141,-0.44295 -0.59223,-0.51283 -1.62234,-0.56452 -1.50681,-0.0756 -2.08388,0.28856 -2.64153,1.66703 -0.46383,1.14652 -0.95276,5.03057 -0.68136,5.41264 0.20438,0.28773 2.20466,0.1433 3.47165,-0.25066 z m 12.30326,8.25895 c -1.20235,-0.49713 -1.27127,-0.67718 -1.05492,-2.75561 0.19982,-1.91964 0.30427,-2.20957 0.7295,-2.0249 0.22401,0.0973 0.24729,0.30347 0.153,1.35544 -0.19594,2.18611 -0.20575,2.1274 0.41577,2.48952 0.43267,0.25209 0.85142,0.31657 1.75932,0.27095 1.15744,-0.0582 1.20907,-0.0812 1.80593,-0.80531 0.43732,-0.53055 0.66672,-1.0214 0.79586,-1.70285 0.49382,-2.60575 -0.0381,-3.74236 -2.33318,-4.98571 -0.71383,-0.38671 -1.5511,-0.99959 -1.8606,-1.36195 -0.50882,-0.59573 -0.56866,-0.77754 -0.6246,-1.89789 -0.11337,-2.27071 0.5615,-3.74081 2.00334,-4.36396 1.00047,-0.43239 2.97324,-0.29592 3.9515,0.27336 l 0.71167,0.41414 -0.10957,1.64256 c -0.1224,1.83491 -0.30231,2.54707 -0.64346,2.54707 -0.35218,0 -0.39544,-0.34174 -0.22758,-1.79812 0.0849,-0.73653 0.11228,-1.46316 0.0609,-1.61475 -0.15299,-0.45119 -1.15339,-0.80983 -2.25898,-0.80983 -1.80824,0 -2.70532,1.07576 -2.70581,3.24474 -3.2e-4,1.47887 0.37002,1.98671 2.1832,2.99379 2.23413,1.24087 2.98278,2.54622 2.79247,4.869 -0.15541,1.89689 -0.87014,3.26283 -2.06965,3.95535 -0.75517,0.43599 -2.49792,0.46857 -3.47409,0.065 z m 17.35904,0.0461 c -1.16388,-0.612 -1.70346,-1.85977 -1.70346,-3.93926 0,-1.98848 0.4297,-7.00711 0.73665,-8.60367 0.46931,-2.44104 1.62485,-3.54902 3.70135,-3.54902 1.49984,0 2.28812,0.46332 2.73547,1.6078 0.28594,0.73152 0.31746,1.06894 0.22587,2.41747 -0.14451,2.12757 -0.34159,2.84798 -1.0072,3.68173 -0.74224,0.92976 -1.69634,1.29183 -3.74284,1.42037 -1.92863,0.12115 -1.83247,-0.009 -1.83592,2.48133 -0.004,2.81648 0.66442,3.82103 2.53156,3.80526 0.52484,-0.004 1.24628,-0.12711 1.60319,-0.27263 0.88844,-0.36221 1.21676,-0.34139 1.21676,0.0772 0,0.8131 -3.33464,1.46595 -4.46143,0.87346 z m 2.94672,-8.30508 c 1.47022,-0.45715 1.91674,-1.48833 1.91919,-4.43208 9.7e-4,-1.20396 -0.0403,-1.37372 -0.4456,-1.83241 -0.39141,-0.44295 -0.59224,-0.51283 -1.62234,-0.56453 -1.50682,-0.0756 -2.08388,0.28856 -2.64154,1.66703 -0.46382,1.14653 -0.95276,5.03057 -0.68135,5.41265 0.20437,0.28772 2.20466,0.1433 3.47164,-0.25066 z m 4.73346,8.18193 c -1.49782,-0.89546 -1.75291,-2.10045 -1.36819,-6.4632 0.54014,-6.12543 0.97452,-7.76737 2.34283,-8.8559 0.61887,-0.49233 0.8589,-0.56537 2.04223,-0.62151 1.10092,-0.0522 1.45611,0.003 1.98439,0.30787 1.01993,0.58885 1.07747,0.7389 0.94339,2.4601 -0.13577,1.74283 -0.29708,2.34452 -0.62858,2.34452 -0.34234,0 -0.37036,-0.25159 -0.2092,-1.87847 0.13555,-1.36839 0.12208,-1.49479 -0.19789,-1.8569 -0.53413,-0.60446 -2.46442,-0.65154 -3.3323,-0.0813 -1.21797,0.80029 -1.63966,2.37884 -2.12177,7.94268 -0.36095,4.16552 -0.1854,5.24361 0.95342,5.85517 0.71315,0.38297 2.2446,0.38771 2.94958,0.009 0.58263,-0.31289 0.63244,-0.46071 0.81153,-2.4087 0.10897,-1.18539 0.42088,-1.7553 0.7542,-1.37808 0.18633,0.21085 -0.0513,3.48637 -0.28382,3.9121 -0.0611,0.11189 -0.48543,0.40068 -0.94295,0.64176 -1.07977,0.56896 -2.80816,0.60203 -3.69687,0.0707 z m 9.02991,0.11203 c -0.59664,-0.3001 -1.13786,-0.94672 -1.36818,-1.63464 -0.26974,-0.80565 -0.21065,-2.23655 0.31255,-7.56916 0.60518,-6.16824 0.60421,-5.77545 0.0144,-5.77545 -0.68451,0 -0.98667,-0.17469 -0.98667,-0.57043 0,-0.28883 0.12173,-0.34755 0.72048,-0.34755 0.39626,0 0.76576,-0.0829 0.82111,-0.18428 0.0554,-0.10135 0.15529,-0.76312 0.22209,-1.47058 0.1249,-1.32286 0.33089,-1.79512 0.6773,-1.55283 0.14103,0.0986 0.17306,0.54991 0.11136,1.56863 -0.10122,1.67123 -0.1308,1.63906 1.5072,1.63906 1.14106,0 1.46716,0.18549 1.1313,0.64347 -0.12928,0.17627 -0.61777,0.2773 -1.51463,0.31325 l -1.32382,0.0531 -0.51366,5.04887 c -0.28251,2.77688 -0.51978,5.61065 -0.52726,6.29726 -0.0211,1.93495 0.44056,2.65091 1.85209,2.87246 0.51591,0.081 0.65956,0.18653 0.70078,0.51494 0.047,0.37457 -0.0135,0.41242 -0.64894,0.4059 -0.38542,-0.004 -0.91979,-0.11734 -1.18748,-0.25198 z m 20.43343,9.2e-4 c -0.63024,-0.31067 -1.28665,-1.19138 -1.54293,-2.07017 -0.36342,-1.24616 0.15082,-8.97501 0.74757,-11.23576 0.19677,-0.74544 0.46317,-1.20751 1.08555,-1.8828 0.45362,-0.49221 0.77829,-0.94754 0.72146,-1.01186 -0.1454,-0.16454 -2.95906,-0.86568 -6.11397,-1.52354 -2.50108,-0.52153 -4.79858,-1.15651 -4.997,-1.38106 -0.1984,-0.22452 5.27685,-0.0774 6.95052,0.18681 0.99135,0.15648 3.37728,0.73442 5.30209,1.28431 6.00355,1.71516 10.64383,3.64353 13.30592,5.5296 2.36554,1.67594 3.28917,2.87605 3.28329,4.26616 -0.0146,3.47007 -3.89942,5.76182 -12.16397,7.1759 -1.20459,0.2061 -2.62819,0.49628 -3.16357,0.64483 -1.20265,0.33369 -2.7574,0.3417 -3.41496,0.0176 z m 3.31845,-0.9642 c 0.6887,-0.25171 0.89925,-0.26435 1.21521,-0.073 0.32915,0.19935 0.72016,0.12846 2.81691,-0.51067 4.33412,-1.32114 7.57656,-2.90166 8.90267,-4.3396 0.89116,-0.96631 1.00403,-1.50441 0.54207,-2.58434 -0.84657,-1.97904 -3.50607,-3.54077 -9.56785,-5.61849 -0.66921,-0.22938 -1.27947,-0.42017 -1.35614,-0.42398 -0.0767,-0.004 -0.15784,0.86056 -0.18038,1.92083 -0.0507,2.38675 -0.26812,3.30917 -0.9942,4.21868 -0.74225,0.92976 -1.69635,1.29183 -3.74285,1.42037 -1.92862,0.12115 -1.83246,-0.009 -1.8359,2.48133 -0.004,2.77878 0.65633,3.80415 2.45322,3.81023 0.50281,0.002 1.28908,-0.13392 1.74724,-0.30137 z m -0.36368,-7.33069 c 1.47023,-0.45715 1.91675,-1.48832 1.9192,-4.43207 0.002,-1.20397 -0.0403,-1.37373 -0.44561,-1.83242 -0.39141,-0.44295 -0.59224,-0.51283 -1.62234,-0.56452 -1.50681,-0.0756 -2.08388,0.28856 -2.64153,1.66703 -0.46382,1.14652 -0.95276,5.03057 -0.68136,5.41264 0.20438,0.28773 2.20466,0.1433 3.47164,-0.25066 z m -84.145953,7.95645 c -0.0015,-0.54547 1.771329,-19.38669 1.874348,-19.9201 0.07811,-0.40444 0.127376,-0.41309 2.353175,-0.41309 2.42159,0 3.0986,0.17066 3.85833,0.97264 1.05871,1.11758 1.32046,2.81547 0.93924,6.09257 -0.5419,4.65836 -2.2383,6.50794 -6.051831,6.5983 -0.742024,0.0176 -1.41353,0.11063 -1.492236,0.20676 -0.07871,0.0961 -0.265355,1.53798 -0.414774,3.2041 -0.149419,1.66613 -0.309104,3.17391 -0.354856,3.35062 -0.126344,0.48799 -0.710005,0.41267 -0.711396,-0.0918 z m 4.219223,-7.67705 c 1.85431,-0.33897 3.1322,-1.52136 3.62815,-3.35701 0.34608,-1.28095 0.65648,-4.66866 0.52126,-5.68909 -0.13718,-1.03524 -0.65372,-1.91 -1.3889,-2.35212 -0.45788,-0.27535 -0.92796,-0.33995 -2.47407,-0.33995 -1.04983,0 -1.90878,0.0651 -1.90878,0.14477 0,0.0796 -0.218689,2.41358 -0.485976,5.18657 -0.668794,6.93851 -0.660636,6.29655 -0.08184,6.43908 0.738424,0.18183 1.04361,0.17734 2.190156,-0.0323 z m 12.56874,7.89851 c -0.20461,-0.37465 0.28092,-0.72634 1.00275,-0.72634 0.42656,0 0.74367,-0.0926 0.7856,-0.2295 0.058,-0.18921 0.4103,-3.80872 1.1613,-11.93032 0.10844,-1.17278 -0.19217,-1.97703 -0.73898,-1.97703 -0.16547,0 -0.38909,-0.12031 -0.49693,-0.26736 -0.54595,-0.74445 0.89636,-0.93142 1.5427,-0.19998 0.21902,0.24786 0.39821,0.57345 0.39821,0.72355 0,0.5202 0.32962,0.49942 0.73543,-0.0464 0.56255,-0.75658 1.64446,-1.31142 2.55719,-1.31142 0.82396,0 1.99042,0.44471 2.11275,0.80547 0.0422,0.12439 0.005,1.00611 -0.0827,1.95939 -0.16302,1.7729 -0.43486,2.4728 -0.79994,2.05964 -0.13296,-0.15045 -0.14239,-0.65175 -0.0339,-1.79768 0.14113,-1.48984 0.13006,-1.60527 -0.17736,-1.84894 -0.18034,-0.14295 -0.64379,-0.2599 -1.02989,-0.2599 -2.29008,0 -3.16295,2.23495 -3.92724,10.05553 -0.4419,4.52173 -0.45882,4.26431 0.28057,4.26772 0.74331,0.003 1.0942,0.23014 0.96158,0.62125 -0.084,0.24776 -0.41746,0.29392 -2.12311,0.29392 -1.23057,0 -2.06445,-0.0751 -2.1281,-0.19164 z m 46.97112,-0.15059 c 0,-0.43539 0.30167,-0.57575 1.23738,-0.57575 h 0.72413 l -0.0964,-0.59669 c -0.053,-0.32818 0.12067,-2.74475 0.38601,-5.37017 0.83532,-8.26516 0.83916,-8.09276 -0.18283,-8.20428 -0.40195,-0.0439 -0.52705,-0.14467 -0.52705,-0.4247 0,-0.26794 0.1259,-0.38348 0.46575,-0.42743 0.83038,-0.10739 1.24313,0.12187 1.50724,0.83721 0.27932,0.75652 0.29726,0.43263 -0.44992,8.11954 -0.53148,5.46775 -0.51566,5.78674 0.29655,5.98059 0.64012,0.15278 0.93836,0.3615 0.93836,0.65672 0,0.20269 -0.44355,0.26596 -2.1496,0.30661 -2.02808,0.0483 -2.1496,0.0313 -2.1496,-0.30165 z m 9.19189,0.0316 c -0.0458,-0.18259 -0.1309,-0.78639 -0.18906,-1.34177 -0.14505,-1.38512 -1.48358,-10.72967 -1.6976,-11.85125 -0.13009,-0.68178 -0.32003,-1.05155 -0.76079,-1.48107 -0.60534,-0.58991 -0.61938,-0.98812 -0.0348,-0.98812 0.56292,0 0.97348,0.37245 1.28219,1.16317 0.23131,0.59249 1.55891,8.86494 1.81458,11.30694 0.0256,0.24453 0.11956,0.47 0.20879,0.50103 0.14976,0.0521 1.69503,-4.37968 3.21044,-9.20744 0.34866,-1.11075 0.69976,-2.09803 0.78023,-2.19396 0.37791,-0.45055 0.1224,-0.63617 -0.94879,-0.68927 -0.99945,-0.0495 -1.09966,-0.0908 -1.14755,-0.47281 l -0.0525,-0.41851 2.16151,0.0513 c 1.78786,0.0425 2.16152,0.0987 2.16152,0.32527 0,0.15068 -0.27565,0.42083 -0.61255,0.60036 -0.38367,0.20444 -0.69973,0.54798 -0.84587,0.91942 -0.26666,0.67778 -4.18674,12.60822 -4.41763,13.4447 -0.17747,0.64297 -0.77911,0.86196 -0.91211,0.33199 z m -6.17893,-17.47685 c -0.16718,-0.30613 0.10018,-1.69852 0.3467,-1.80557 0.42258,-0.18351 0.59381,0.24174 0.4367,1.08454 -0.14211,0.76234 -0.55387,1.14132 -0.7834,0.72103 z m -53.62995,-1.77453 c -0.13385,-0.032 -0.53538,-0.11855 -0.89229,-0.19221 l -0.64894,-0.13394 0.64894,-0.14078 c 0.35691,-0.0774 3.27713,-0.23222 6.48936,-0.34399 3.21223,-0.11176 10.03822,-0.41648 15.16887,-0.67715 10.71202,-0.54423 15.63672,-0.51692 19.61183,0.10877 1.28365,0.20205 2.36591,0.40357 2.40502,0.44783 0.20597,0.23309 -3.40765,0.33437 -13.74292,0.38518 -7.57661,0.0373 -13.1078,0.15432 -16.38562,0.34681 -4.29268,0.25208 -11.9317,0.3725 -12.65425,0.19948 z M 77.577504,83.37211 C 75.347415,83.02106 74.486003,82.82816 73.359421,82.42756 68.486228,80.69469 64.636468,76.61275 61.989266,70.37165 60.60962,67.11896 59.296482,62.15294 58.902794,58.69922 l -0.114377,-1.00339 0.872723,0.86395 c 1.572823,1.55703 3.885507,2.58692 6.86069,3.05522 0.674969,0.10624 3.110094,0.32076 5.411393,0.4767 6.337069,0.42944 8.632102,0.90103 11.160236,2.29326 2.386943,1.31448 3.988543,3.10398 5.257546,5.87438 0.703577,1.536 1.404406,3.89801 1.566259,5.27877 0.128603,1.0971 0.157727,1.07801 -1.901093,1.24634 -6.080636,0.49717 -14.339279,-3.32954 -21.752874,-10.07938 -2.356689,-2.14569 -2.589618,-2.12804 -1.273446,0.0965 4.165646,7.04053 10.546956,10.73354 21.834989,12.63643 1.189864,0.20058 2.568629,0.56107 3.163562,0.82714 0.579986,0.25938 1.821076,0.71984 2.757977,1.02324 2.223911,0.72018 3.569147,1.27719 3.569147,1.47787 0,0.42457 -2.781577,0.0352 -6.246007,-0.87423 l -1.135638,-0.29813 -1.946807,0.5669 c -1.070744,0.31179 -2.640358,0.69403 -3.48803,0.84941 -1.572039,0.28816 -5.042655,0.50029 -5.92154,0.36194 z M 95.66659,78.23606 c 0,-0.0558 0.439586,-0.56206 0.976858,-1.12497 1.93694,-2.02939 3.748572,-5.74393 5.121572,-10.50119 0.66742,-2.3125 0.44075,-2.68704 -0.43628,-0.72089 -0.74332,1.66639 -2.420775,4.70952 -3.44466,6.24907 -1.64007,2.46607 -4.149391,4.98973 -4.628319,4.65476 -0.348746,-0.24391 -0.749975,-2.7964 -0.738412,-4.69754 0.02275,-3.74074 1.05821,-5.33797 5.35599,-8.2618 2.777181,-1.88934 4.592981,-3.65564 5.237581,-5.09477 0.19222,-0.42916 0.41038,-0.78028 0.4848,-0.78028 0.15862,0 0.69158,1.97403 1.16486,4.31449 0.48271,2.38716 0.60517,6.40267 0.25031,8.20772 -0.81453,4.14324 -3.12729,6.72396 -6.782275,7.56809 -1.238952,0.28613 -2.562025,0.38286 -2.562025,0.18731 z"
       id="path58" />
  </g>
</svg>
