<?xml version="1.0" encoding="UTF-8" standalone="no"?>
<svg
   xmlns:dc="http://purl.org/dc/elements/1.1/"
   xmlns:cc="http://creativecommons.org/ns#"
   xmlns:rdf="http://www.w3.org/1999/02/22-rdf-syntax-ns#"
   xmlns:svg="http://www.w3.org/2000/svg"
   xmlns="http://www.w3.org/2000/svg"
   xmlns:sodipodi="http://sodipodi.sourceforge.net/DTD/sodipodi-0.dtd"
   xmlns:inkscape="http://www.inkscape.org/namespaces/inkscape"
   width="210mm"
   height="297mm"
   viewBox="0 0 210 297"
   version="1.1"
   id="svg8"
   inkscape:version="1.0.1 (3bc2e813f5, 2020-09-07)"
   sodipodi:docname="wave-hero-background new.svg">
  <defs
     id="defs2">
    <radialGradient
       cx="908.98819"
       cy="857.2158"
       fx="908.98819"
       fy="857.2158"
       r="1150.3904"
       gradientTransform="scale(1.6714951,0.59826678)"
       id="radialGradient-1"
       gradientUnits="userSpaceOnUse">
      <stop
         stop-color="#0069FF"
         offset="0%"
         id="stop14" />
      <stop
         stop-color="#0269FD"
         offset="2.91250472%"
         id="stop16" />
      <stop
         stop-color="#0369FC"
         offset="4.5053357%"
         id="stop18" />
      <stop
         stop-color="#0468FB"
         offset="6.00516035%"
         id="stop20" />
      <stop
         stop-color="#1165EF"
         offset="25.4821693%"
         id="stop22" />
      <stop
         stop-color="#4457C0"
         offset="100%"
         id="stop24" />
    </radialGradient>
  </defs>
  <sodipodi:namedview
     id="base"
     pagecolor="#ffffff"
     bordercolor="#666666"
     borderopacity="1.0"
     inkscape:pageopacity="0.0"
     inkscape:pageshadow="2"
     inkscape:zoom="0.49497475"
     inkscape:cx="1082.8695"
     inkscape:cy="653.12082"
     inkscape:document-units="mm"
     inkscape:current-layer="layer1"
     inkscape:document-rotation="0"
     showgrid="false"
     inkscape:window-width="1920"
     inkscape:window-height="1017"
     inkscape:window-x="-8"
     inkscape:window-y="-8"
     inkscape:window-maximized="1" />
  <metadata
     id="metadata5">
    <rdf:RDF>
      <cc:Work
         rdf:about="">
        <dc:format>image/svg+xml</dc:format>
        <dc:type
           rdf:resource="http://purl.org/dc/dcmitype/StillImage" />
        <dc:title></dc:title>
      </cc:Work>
    </rdf:RDF>
  </metadata>
  <g
     inkscape:label="Layer 1"
     inkscape:groupmode="layer"
     id="layer1">
    <g
       id="Group-4"
       style="fill:none;fill-rule:evenodd;stroke:#000000;stroke-width:1;stroke-opacity:1"
       transform="matrix(0.26458333,0,0,0.26458333,-81.057402,58.495892)">
      <path
         d="m 0,0 h 1300 c -0.1563,99.065847 -0.1563,259.04573 0,479.93966 -360.62063,42.34903 -321.10649,-40.24482 -650,-28.98765 -328.89351,11.25717 -343.41044,60.24847 -650,0 C 1,327.50834 1,177.191 0,0 Z"
         id="Wave"
         fill="#c4c4c4"
         opacity="0.15"
         style="stroke:#000000;stroke-opacity:1" />
      <path
         d="M 1.0007686,0 H 925.70125 1302 c 0,223.96094 0,366.84989 0,428.66685 -80.3948,-11.92201 -154.1863,-29.33211 -343.71823,-11.92201 -189.53191,17.4101 -256.45746,87.04467 -531.95978,21.02991 C 242.65378,393.76491 100.88004,397.00327 1.0007686,447.48984 Z"
         id="path30"
         fill="url(#radialGradient-1)"
         transform="matrix(-1,0,0,1,1303.0008,0)"
         style="fill:url(#radialGradient-1);stroke:#000000;stroke-opacity:1" />
    </g>
    <path
       style="fill:#ffaaaa;stroke:#000000;stroke-width:1.42857;stroke-opacity:1"
       d="M 318.20578,683.86708 C 292.87742,681.94602 255.70061,676.16673 217.73595,668.2486 131.46646,650.25578 114.59952,646.92658 92.491494,643.52779 32.649322,634.32795 -21.946964,630.6788 -101.07994,630.58973 c -77.1234,-0.0868 -93.23554,1.13203 -170.61803,12.90685 -17.62564,2.68198 -32.25064,4.87632 -32.5,4.87632 -0.24937,0 -0.45339,-63.64285 -0.45339,-141.42857 V 365.51576 h 5.43144 c 17.57702,0 113.61153,10.49009 170.28284,18.60041 304.8287,43.62454 537.63102,137.45769 623.29723,251.22578 9.98582,13.26155 21.84664,32.64898 20.68477,33.81085 -1.09265,1.09268 -40.75284,7.59976 -64.01594,10.50318 -46.36791,5.78707 -92.684,7.2555 -132.8232,4.2111 z"
       id="path1033"
       transform="scale(0.26458333)" />
    <path
       style="fill:#ffeeaa;stroke:#000000;stroke-width:1.42857;stroke-opacity:1"
       d="M 510.57229,657.59632 C 488.78192,620.67768 454.28795,586.55692 406.73208,554.8796 280.27851,470.64796 70.925522,406.80735 -178.93708,376.28419 c -39.0186,-4.7665 -92.96396,-10.41254 -111.07143,-11.62499 l -14.64285,-0.98045 V 293.16868 222.65862 H -53.220349 198.21068 l 33.92611,6.49198 c 343.86365,65.80047 611.3036,175.70979 744.99756,306.1703 l 16.78572,16.37976 v 57.06039 c 0,45.11057 -0.37398,56.89758 -1.78572,56.28295 -43.82157,-19.07837 -79.60266,-28.77351 -128.22276,-34.74288 -25.52457,-3.1338 -96.0207,-3.54322 -126.4201,-0.7342 -48.1837,4.45236 -97.62715,12.50001 -150.95168,24.56967 -17.548,3.97187 -40.2626,9.01283 -50.47689,11.20213 l -18.57143,3.98056 z"
       id="path1035"
       transform="scale(0.26458333)" />
    <path
       style="fill:#afe9c6;stroke:#000000;stroke-width:1.42857;stroke-opacity:1"
       d="M 975.17927,532.17563 C 844.60008,405.38808 582.78849,296.85661 249.63435,231.40798 c -20.03571,-3.93604 -37.71428,-7.44028 -39.28571,-7.78719 -1.57143,-0.34691 174.08928,-0.70531 390.35714,-0.79646 l 393.21429,-0.16571 v 163.57143 c 0,89.96428 -0.16072,163.5438 -0.35715,163.51004 -0.19643,-0.0337 -8.46907,-7.93777 -18.38365,-17.56446 z"
       id="path1037"
       transform="scale(0.26458333)" />
  </g>
</svg>
